%FSLAX33Y33*%
%MOMM*%
%AMRect-W670710-H870710-RO0.500*
21,1,0.67071,0.87071,0.,0.,270*%
%AMRect-W1450000-H1450000-RO0.500*
21,1,1.45,1.45,0.,0.,270*%
%AMRect-W670710-H870710-RO1.000*
21,1,0.67071,0.87071,0.,0.,180*%
%AMRect-W750001-H3550001-RO1.500*
21,1,0.750001,3.550001,0.,0.,90*%
%AMRect-W10000000-H8600001-RO1.500*
21,1,10.,8.600001,0.,0.,90*%
%AMRect-W1800000-H2500000-RO0.500*
21,1,1.8,2.5,0.,0.,270*%
%AMRR-H1905000-W1524000-R762000-RO0.000*
21,1,1.524,0.381,0.,0.,360*
1,1,1.524,0.,0.1905*
1,1,1.524,0.,0.1905*
1,1,1.524,0.,-0.1905*
1,1,1.524,-0.,-0.1905*%
%AMRect-W670710-H870710-RO1.500*
21,1,0.67071,0.87071,0.,0.,90*%
%ADD10C,0.0508*%
%ADD11C,0.508*%
%ADD12C,0.8128*%
%ADD13C,1.07*%
%ADD14C,0.8*%
%ADD15C,0.*%
%ADD16Rect-W670710-H870710-RO0.500*%
%ADD17C,1.45*%
%ADD18Rect-W1450000-H1450000-RO0.500*%
%ADD19Rect-W670710-H870710-RO1.000*%
%ADD20R,1.45X1.45*%
%ADD21C,1.45*%
%ADD22C,0.7*%
%ADD23Rect-W750001-H3550001-RO1.500*%
%ADD24Rect-W10000000-H8600001-RO1.500*%
%ADD25Rect-W1800000-H2500000-RO0.500*%
%ADD26R,0.67071X0.87071*%
%ADD27RR-H1905000-W1524000-R762000-RO0.000*%
%ADD28Rect-W670710-H870710-RO1.500*%
%ADD29R,3.5X3.1*%
D10*
%LNpour fill*%
G01*
X67563Y32358D02*
X67563Y32358D01*
X59614Y32358*
X59614Y22409*
X67563Y22409*
X67563Y32358*
X59614Y22433D02*
X67563Y22433D01*
X59614Y22482D02*
X67563Y22482D01*
X59614Y22532D02*
X67563Y22532D01*
X59614Y22581D02*
X67563Y22581D01*
X59614Y22631D02*
X67563Y22631D01*
X59614Y22680D02*
X67563Y22680D01*
X59614Y22730D02*
X67563Y22730D01*
X59614Y22779D02*
X67563Y22779D01*
X59614Y22829D02*
X67563Y22829D01*
X59614Y22878D02*
X67563Y22878D01*
X59614Y22928D02*
X67563Y22928D01*
X59614Y22978D02*
X67563Y22978D01*
X59614Y23027D02*
X67563Y23027D01*
X59614Y23077D02*
X67563Y23077D01*
X59614Y23126D02*
X67563Y23126D01*
X59614Y23176D02*
X67563Y23176D01*
X59614Y23225D02*
X67563Y23225D01*
X59614Y23275D02*
X67563Y23275D01*
X59614Y23324D02*
X67563Y23324D01*
X59614Y23374D02*
X67563Y23374D01*
X59614Y23423D02*
X67563Y23423D01*
X59614Y23473D02*
X67563Y23473D01*
X59614Y23522D02*
X67563Y23522D01*
X59614Y23572D02*
X67563Y23572D01*
X59614Y23621D02*
X67563Y23621D01*
X59614Y23671D02*
X67563Y23671D01*
X59614Y23720D02*
X67563Y23720D01*
X59614Y23770D02*
X67563Y23770D01*
X59614Y23820D02*
X67563Y23820D01*
X59614Y23869D02*
X67563Y23869D01*
X59614Y23919D02*
X67563Y23919D01*
X59614Y23968D02*
X67563Y23968D01*
X59614Y24018D02*
X67563Y24018D01*
X59614Y24067D02*
X67563Y24067D01*
X59614Y24117D02*
X67563Y24117D01*
X59614Y24166D02*
X67563Y24166D01*
X59614Y24216D02*
X67563Y24216D01*
X59614Y24265D02*
X67563Y24265D01*
X59614Y24315D02*
X67563Y24315D01*
X59614Y24364D02*
X67563Y24364D01*
X59614Y24414D02*
X67563Y24414D01*
X59614Y24463D02*
X67563Y24463D01*
X59614Y24513D02*
X67563Y24513D01*
X59614Y24562D02*
X67563Y24562D01*
X59614Y24612D02*
X67563Y24612D01*
X59614Y24662D02*
X67563Y24662D01*
X59614Y24711D02*
X67563Y24711D01*
X59614Y24761D02*
X67563Y24761D01*
X59614Y24810D02*
X67563Y24810D01*
X59614Y24860D02*
X67563Y24860D01*
X59614Y24909D02*
X67563Y24909D01*
X59614Y24959D02*
X67563Y24959D01*
X59614Y25008D02*
X67563Y25008D01*
X59614Y25058D02*
X67563Y25058D01*
X59614Y25107D02*
X67563Y25107D01*
X59614Y25157D02*
X67563Y25157D01*
X59614Y25206D02*
X67563Y25206D01*
X59614Y25256D02*
X67563Y25256D01*
X59614Y25305D02*
X67563Y25305D01*
X59614Y25355D02*
X67563Y25355D01*
X59614Y25404D02*
X67563Y25404D01*
X59614Y25454D02*
X67563Y25454D01*
X59614Y25504D02*
X67563Y25504D01*
X59614Y25553D02*
X67563Y25553D01*
X59614Y25603D02*
X67563Y25603D01*
X59614Y25652D02*
X67563Y25652D01*
X59614Y25702D02*
X67563Y25702D01*
X59614Y25751D02*
X67563Y25751D01*
X59614Y25801D02*
X67563Y25801D01*
X59614Y25850D02*
X67563Y25850D01*
X59614Y25900D02*
X67563Y25900D01*
X59614Y25949D02*
X67563Y25949D01*
X59614Y25999D02*
X67563Y25999D01*
X59614Y26048D02*
X67563Y26048D01*
X59614Y26098D02*
X67563Y26098D01*
X59614Y26147D02*
X67563Y26147D01*
X59614Y26197D02*
X67563Y26197D01*
X59614Y26247D02*
X67563Y26247D01*
X59614Y26296D02*
X67563Y26296D01*
X59614Y26346D02*
X67563Y26346D01*
X59614Y26395D02*
X67563Y26395D01*
X59614Y26445D02*
X67563Y26445D01*
X59614Y26494D02*
X67563Y26494D01*
X59614Y26544D02*
X67563Y26544D01*
X59614Y26593D02*
X67563Y26593D01*
X59614Y26643D02*
X67563Y26643D01*
X59614Y26692D02*
X67563Y26692D01*
X59614Y26742D02*
X67563Y26742D01*
X59614Y26791D02*
X67563Y26791D01*
X59614Y26841D02*
X67563Y26841D01*
X59614Y26890D02*
X67563Y26890D01*
X59614Y26940D02*
X67563Y26940D01*
X59614Y26989D02*
X67563Y26989D01*
X59614Y27039D02*
X67563Y27039D01*
X59614Y27089D02*
X67563Y27089D01*
X59614Y27138D02*
X67563Y27138D01*
X59614Y27188D02*
X67563Y27188D01*
X59614Y27237D02*
X67563Y27237D01*
X59614Y27287D02*
X67563Y27287D01*
X59614Y27336D02*
X67563Y27336D01*
X59614Y27386D02*
X67563Y27386D01*
X59614Y27435D02*
X67563Y27435D01*
X59614Y27485D02*
X67563Y27485D01*
X59614Y27534D02*
X67563Y27534D01*
X59614Y27584D02*
X67563Y27584D01*
X59614Y27633D02*
X67563Y27633D01*
X59614Y27683D02*
X67563Y27683D01*
X59614Y27732D02*
X67563Y27732D01*
X59614Y27782D02*
X67563Y27782D01*
X59614Y27831D02*
X67563Y27831D01*
X59614Y27881D02*
X67563Y27881D01*
X59614Y27931D02*
X67563Y27931D01*
X59614Y27980D02*
X67563Y27980D01*
X59614Y28030D02*
X67563Y28030D01*
X59614Y28079D02*
X67563Y28079D01*
X59614Y28129D02*
X67563Y28129D01*
X59614Y28178D02*
X67563Y28178D01*
X59614Y28228D02*
X67563Y28228D01*
X59614Y28277D02*
X67563Y28277D01*
X59614Y28327D02*
X67563Y28327D01*
X59614Y28376D02*
X67563Y28376D01*
X59614Y28426D02*
X67563Y28426D01*
X59614Y28475D02*
X67563Y28475D01*
X59614Y28525D02*
X67563Y28525D01*
X59614Y28574D02*
X67563Y28574D01*
X59614Y28624D02*
X67563Y28624D01*
X59614Y28673D02*
X67563Y28673D01*
X59614Y28723D02*
X67563Y28723D01*
X59614Y28773D02*
X67563Y28773D01*
X59614Y28822D02*
X67563Y28822D01*
X59614Y28872D02*
X67563Y28872D01*
X59614Y28921D02*
X67563Y28921D01*
X59614Y28971D02*
X67563Y28971D01*
X59614Y29020D02*
X67563Y29020D01*
X59614Y29070D02*
X67563Y29070D01*
X59614Y29119D02*
X67563Y29119D01*
X59614Y29169D02*
X67563Y29169D01*
X59614Y29218D02*
X67563Y29218D01*
X59614Y29268D02*
X67563Y29268D01*
X59614Y29317D02*
X67563Y29317D01*
X59614Y29367D02*
X67563Y29367D01*
X59614Y29416D02*
X67563Y29416D01*
X59614Y29466D02*
X67563Y29466D01*
X59614Y29515D02*
X67563Y29515D01*
X59614Y29565D02*
X67563Y29565D01*
X59614Y29615D02*
X67563Y29615D01*
X59614Y29664D02*
X67563Y29664D01*
X59614Y29714D02*
X67563Y29714D01*
X59614Y29763D02*
X67563Y29763D01*
X59614Y29813D02*
X67563Y29813D01*
X59614Y29862D02*
X67563Y29862D01*
X59614Y29912D02*
X67563Y29912D01*
X59614Y29961D02*
X67563Y29961D01*
X59614Y30011D02*
X67563Y30011D01*
X59614Y30060D02*
X67563Y30060D01*
X59614Y30110D02*
X67563Y30110D01*
X59614Y30159D02*
X67563Y30159D01*
X59614Y30209D02*
X67563Y30209D01*
X59614Y30258D02*
X67563Y30258D01*
X59614Y30308D02*
X67563Y30308D01*
X59614Y30357D02*
X67563Y30357D01*
X59614Y30407D02*
X67563Y30407D01*
X59614Y30457D02*
X67563Y30457D01*
X59614Y30506D02*
X67563Y30506D01*
X59614Y30556D02*
X67563Y30556D01*
X59614Y30605D02*
X67563Y30605D01*
X59614Y30655D02*
X67563Y30655D01*
X59614Y30704D02*
X67563Y30704D01*
X59614Y30754D02*
X67563Y30754D01*
X59614Y30803D02*
X67563Y30803D01*
X59614Y30853D02*
X67563Y30853D01*
X59614Y30902D02*
X67563Y30902D01*
X59614Y30952D02*
X67563Y30952D01*
X59614Y31001D02*
X67563Y31001D01*
X59614Y31051D02*
X67563Y31051D01*
X59614Y31100D02*
X67563Y31100D01*
X59614Y31150D02*
X67563Y31150D01*
X59614Y31200D02*
X67563Y31200D01*
X59614Y31249D02*
X67563Y31249D01*
X59614Y31299D02*
X67563Y31299D01*
X59614Y31348D02*
X67563Y31348D01*
X59614Y31398D02*
X67563Y31398D01*
X59614Y31447D02*
X67563Y31447D01*
X59614Y31497D02*
X67563Y31497D01*
X59614Y31546D02*
X67563Y31546D01*
X59614Y31596D02*
X67563Y31596D01*
X59614Y31645D02*
X67563Y31645D01*
X59614Y31695D02*
X67563Y31695D01*
X59614Y31744D02*
X67563Y31744D01*
X59614Y31794D02*
X67563Y31794D01*
X59614Y31843D02*
X67563Y31843D01*
X59614Y31893D02*
X67563Y31893D01*
X59614Y31942D02*
X67563Y31942D01*
X59614Y31992D02*
X67563Y31992D01*
X59614Y32042D02*
X67563Y32042D01*
X59614Y32091D02*
X67563Y32091D01*
X59614Y32141D02*
X67563Y32141D01*
X59614Y32190D02*
X67563Y32190D01*
X59614Y32240D02*
X67563Y32240D01*
X59614Y32289D02*
X67563Y32289D01*
X59614Y32339D02*
X67563Y32339D01*
%LNpour fill*%
X52391Y33989D02*
X52391Y33989D01*
X52391Y47104*
X52391Y47162*
X51734Y47615*
X39819Y47615*
X38600Y46396*
X38600Y33550*
X51724Y33550*
X52391Y33989*
X38600Y33575D02*
X51760Y33575D01*
X38600Y33624D02*
X51836Y33624D01*
X38600Y33674D02*
X51911Y33674D01*
X38600Y33723D02*
X51987Y33723D01*
X38600Y33773D02*
X52062Y33773D01*
X38600Y33822D02*
X52137Y33822D01*
X38600Y33872D02*
X52213Y33872D01*
X38600Y33921D02*
X52288Y33921D01*
X38600Y33971D02*
X52363Y33971D01*
X38600Y34020D02*
X52391Y34020D01*
X38600Y34070D02*
X52391Y34070D01*
X38600Y34119D02*
X52391Y34119D01*
X38600Y34169D02*
X52391Y34169D01*
X38600Y34218D02*
X52391Y34218D01*
X38600Y34268D02*
X52391Y34268D01*
X38600Y34317D02*
X52391Y34317D01*
X38600Y34367D02*
X52391Y34367D01*
X38600Y34417D02*
X52391Y34417D01*
X38600Y34466D02*
X52391Y34466D01*
X38600Y34516D02*
X52391Y34516D01*
X38600Y34565D02*
X52391Y34565D01*
X38600Y34615D02*
X52391Y34615D01*
X38600Y34664D02*
X52391Y34664D01*
X38600Y34714D02*
X52391Y34714D01*
X38600Y34763D02*
X52391Y34763D01*
X38600Y34813D02*
X52391Y34813D01*
X38600Y34862D02*
X52391Y34862D01*
X38600Y34912D02*
X52391Y34912D01*
X38600Y34961D02*
X52391Y34961D01*
X38600Y35011D02*
X52391Y35011D01*
X38600Y35060D02*
X52391Y35060D01*
X38600Y35110D02*
X52391Y35110D01*
X38600Y35159D02*
X52391Y35159D01*
X38600Y35209D02*
X52391Y35209D01*
X38600Y35259D02*
X52391Y35259D01*
X38600Y35308D02*
X52391Y35308D01*
X38600Y35358D02*
X52391Y35358D01*
X38600Y35407D02*
X52391Y35407D01*
X38600Y35457D02*
X52391Y35457D01*
X38600Y35506D02*
X52391Y35506D01*
X38600Y35556D02*
X52391Y35556D01*
X38600Y35605D02*
X52391Y35605D01*
X38600Y35655D02*
X52391Y35655D01*
X38600Y35704D02*
X52391Y35704D01*
X38600Y35754D02*
X52391Y35754D01*
X38600Y35803D02*
X52391Y35803D01*
X38600Y35853D02*
X52391Y35853D01*
X38600Y35902D02*
X52391Y35902D01*
X38600Y35952D02*
X52391Y35952D01*
X38600Y36001D02*
X52391Y36001D01*
X38600Y36051D02*
X52391Y36051D01*
X38600Y36101D02*
X52391Y36101D01*
X38600Y36150D02*
X52391Y36150D01*
X38600Y36200D02*
X52391Y36200D01*
X38600Y36249D02*
X52391Y36249D01*
X38600Y36299D02*
X52391Y36299D01*
X38600Y36348D02*
X52391Y36348D01*
X38600Y36398D02*
X52391Y36398D01*
X38600Y36447D02*
X52391Y36447D01*
X38600Y36497D02*
X52391Y36497D01*
X38600Y36546D02*
X52391Y36546D01*
X38600Y36596D02*
X52391Y36596D01*
X38600Y36645D02*
X52391Y36645D01*
X38600Y36695D02*
X52391Y36695D01*
X38600Y36744D02*
X52391Y36744D01*
X38600Y36794D02*
X52391Y36794D01*
X38600Y36844D02*
X52391Y36844D01*
X38600Y36893D02*
X52391Y36893D01*
X38600Y36943D02*
X52391Y36943D01*
X38600Y36992D02*
X52391Y36992D01*
X38600Y37042D02*
X52391Y37042D01*
X38600Y37091D02*
X52391Y37091D01*
X38600Y37141D02*
X52391Y37141D01*
X38600Y37190D02*
X52391Y37190D01*
X38600Y37240D02*
X52391Y37240D01*
X38600Y37289D02*
X52391Y37289D01*
X38600Y37339D02*
X52391Y37339D01*
X38600Y37388D02*
X52391Y37388D01*
X38600Y37438D02*
X52391Y37438D01*
X38600Y37487D02*
X52391Y37487D01*
X38600Y37537D02*
X52391Y37537D01*
X38600Y37586D02*
X52391Y37586D01*
X38600Y37636D02*
X52391Y37636D01*
X38600Y37686D02*
X52391Y37686D01*
X38600Y37735D02*
X52391Y37735D01*
X38600Y37785D02*
X52391Y37785D01*
X38600Y37834D02*
X52391Y37834D01*
X38600Y37884D02*
X52391Y37884D01*
X38600Y37933D02*
X52391Y37933D01*
X38600Y37983D02*
X52391Y37983D01*
X38600Y38032D02*
X52391Y38032D01*
X38600Y38082D02*
X52391Y38082D01*
X38600Y38131D02*
X52391Y38131D01*
X38600Y38181D02*
X52391Y38181D01*
X38600Y38230D02*
X52391Y38230D01*
X38600Y38280D02*
X52391Y38280D01*
X38600Y38329D02*
X52391Y38329D01*
X38600Y38379D02*
X52391Y38379D01*
X38600Y38428D02*
X52391Y38428D01*
X38600Y38478D02*
X52391Y38478D01*
X38600Y38528D02*
X52391Y38528D01*
X38600Y38577D02*
X52391Y38577D01*
X38600Y38627D02*
X52391Y38627D01*
X38600Y38676D02*
X52391Y38676D01*
X38600Y38726D02*
X52391Y38726D01*
X38600Y38775D02*
X52391Y38775D01*
X38600Y38825D02*
X52391Y38825D01*
X38600Y38874D02*
X52391Y38874D01*
X38600Y38924D02*
X52391Y38924D01*
X38600Y38973D02*
X52391Y38973D01*
X38600Y39023D02*
X52391Y39023D01*
X38600Y39072D02*
X52391Y39072D01*
X38600Y39122D02*
X52391Y39122D01*
X38600Y39171D02*
X52391Y39171D01*
X38600Y39221D02*
X52391Y39221D01*
X38600Y39270D02*
X52391Y39270D01*
X38600Y39320D02*
X52391Y39320D01*
X38600Y39370D02*
X52391Y39370D01*
X38600Y39419D02*
X52391Y39419D01*
X38600Y39469D02*
X52391Y39469D01*
X38600Y39518D02*
X52391Y39518D01*
X38600Y39568D02*
X52391Y39568D01*
X38600Y39617D02*
X52391Y39617D01*
X38600Y39667D02*
X52391Y39667D01*
X38600Y39716D02*
X52391Y39716D01*
X38600Y39766D02*
X52391Y39766D01*
X38600Y39815D02*
X52391Y39815D01*
X38600Y39865D02*
X52391Y39865D01*
X38600Y39914D02*
X52391Y39914D01*
X38600Y39964D02*
X52391Y39964D01*
X38600Y40013D02*
X52391Y40013D01*
X38600Y40063D02*
X52391Y40063D01*
X38600Y40112D02*
X52391Y40112D01*
X38600Y40162D02*
X52391Y40162D01*
X38600Y40212D02*
X52391Y40212D01*
X38600Y40261D02*
X52391Y40261D01*
X38600Y40311D02*
X52391Y40311D01*
X38600Y40360D02*
X52391Y40360D01*
X38600Y40410D02*
X52391Y40410D01*
X38600Y40459D02*
X52391Y40459D01*
X38600Y40509D02*
X52391Y40509D01*
X38600Y40558D02*
X52391Y40558D01*
X38600Y40608D02*
X52391Y40608D01*
X38600Y40657D02*
X52391Y40657D01*
X38600Y40707D02*
X52391Y40707D01*
X38600Y40756D02*
X52391Y40756D01*
X38600Y40806D02*
X52391Y40806D01*
X38600Y40855D02*
X52391Y40855D01*
X38600Y40905D02*
X52391Y40905D01*
X38600Y40954D02*
X52391Y40954D01*
X38600Y41004D02*
X52391Y41004D01*
X38600Y41054D02*
X52391Y41054D01*
X38600Y41103D02*
X52391Y41103D01*
X38600Y41153D02*
X52391Y41153D01*
X38600Y41202D02*
X52391Y41202D01*
X38600Y41252D02*
X52391Y41252D01*
X38600Y41301D02*
X52391Y41301D01*
X38600Y41351D02*
X52391Y41351D01*
X38600Y41400D02*
X52391Y41400D01*
X38600Y41450D02*
X52391Y41450D01*
X38600Y41499D02*
X52391Y41499D01*
X38600Y41549D02*
X52391Y41549D01*
X38600Y41598D02*
X52391Y41598D01*
X38600Y41648D02*
X52391Y41648D01*
X38600Y41697D02*
X52391Y41697D01*
X38600Y41747D02*
X52391Y41747D01*
X38600Y41797D02*
X52391Y41797D01*
X38600Y41846D02*
X52391Y41846D01*
X38600Y41896D02*
X52391Y41896D01*
X38600Y41945D02*
X52391Y41945D01*
X38600Y41995D02*
X52391Y41995D01*
X38600Y42044D02*
X52391Y42044D01*
X38600Y42094D02*
X52391Y42094D01*
X38600Y42143D02*
X52391Y42143D01*
X38600Y42193D02*
X52391Y42193D01*
X38600Y42242D02*
X52391Y42242D01*
X38600Y42292D02*
X52391Y42292D01*
X38600Y42341D02*
X52391Y42341D01*
X38600Y42391D02*
X52391Y42391D01*
X38600Y42440D02*
X52391Y42440D01*
X38600Y42490D02*
X52391Y42490D01*
X38600Y42539D02*
X52391Y42539D01*
X38600Y42589D02*
X52391Y42589D01*
X38600Y42639D02*
X52391Y42639D01*
X38600Y42688D02*
X52391Y42688D01*
X38600Y42738D02*
X52391Y42738D01*
X38600Y42787D02*
X52391Y42787D01*
X38600Y42837D02*
X52391Y42837D01*
X38600Y42886D02*
X52391Y42886D01*
X38600Y42936D02*
X52391Y42936D01*
X38600Y42985D02*
X52391Y42985D01*
X38600Y43035D02*
X52391Y43035D01*
X38600Y43084D02*
X52391Y43084D01*
X38600Y43134D02*
X52391Y43134D01*
X38600Y43183D02*
X52391Y43183D01*
X38600Y43233D02*
X52391Y43233D01*
X38600Y43282D02*
X52391Y43282D01*
X38600Y43332D02*
X52391Y43332D01*
X38600Y43381D02*
X52391Y43381D01*
X38600Y43431D02*
X52391Y43431D01*
X38600Y43481D02*
X52391Y43481D01*
X38600Y43530D02*
X52391Y43530D01*
X38600Y43580D02*
X52391Y43580D01*
X38600Y43629D02*
X52391Y43629D01*
X38600Y43679D02*
X52391Y43679D01*
X38600Y43728D02*
X52391Y43728D01*
X38600Y43778D02*
X52391Y43778D01*
X38600Y43827D02*
X52391Y43827D01*
X38600Y43877D02*
X52391Y43877D01*
X38600Y43926D02*
X52391Y43926D01*
X38600Y43976D02*
X52391Y43976D01*
X38600Y44025D02*
X52391Y44025D01*
X38600Y44075D02*
X52391Y44075D01*
X38600Y44124D02*
X52391Y44124D01*
X38600Y44174D02*
X52391Y44174D01*
X38600Y44223D02*
X52391Y44223D01*
X38600Y44273D02*
X52391Y44273D01*
X38600Y44323D02*
X52391Y44323D01*
X38600Y44372D02*
X52391Y44372D01*
X38600Y44422D02*
X52391Y44422D01*
X38600Y44471D02*
X52391Y44471D01*
X38600Y44521D02*
X52391Y44521D01*
X38600Y44570D02*
X52391Y44570D01*
X38600Y44620D02*
X52391Y44620D01*
X38600Y44669D02*
X52391Y44669D01*
X38600Y44719D02*
X52391Y44719D01*
X38600Y44768D02*
X52391Y44768D01*
X38600Y44818D02*
X52391Y44818D01*
X38600Y44867D02*
X52391Y44867D01*
X38600Y44917D02*
X52391Y44917D01*
X38600Y44966D02*
X52391Y44966D01*
X38600Y45016D02*
X52391Y45016D01*
X38600Y45065D02*
X52391Y45065D01*
X38600Y45115D02*
X52391Y45115D01*
X38600Y45165D02*
X52391Y45165D01*
X38600Y45214D02*
X52391Y45214D01*
X38600Y45264D02*
X52391Y45264D01*
X38600Y45313D02*
X52391Y45313D01*
X38600Y45363D02*
X52391Y45363D01*
X38600Y45412D02*
X52391Y45412D01*
X38600Y45462D02*
X52391Y45462D01*
X38600Y45511D02*
X52391Y45511D01*
X38600Y45561D02*
X52391Y45561D01*
X38600Y45610D02*
X52391Y45610D01*
X38600Y45660D02*
X52391Y45660D01*
X38600Y45709D02*
X52391Y45709D01*
X38600Y45759D02*
X52391Y45759D01*
X38600Y45808D02*
X52391Y45808D01*
X38600Y45858D02*
X52391Y45858D01*
X38600Y45907D02*
X52391Y45907D01*
X38600Y45957D02*
X52391Y45957D01*
X38600Y46007D02*
X52391Y46007D01*
X38600Y46056D02*
X52391Y46056D01*
X38600Y46106D02*
X52391Y46106D01*
X38600Y46155D02*
X52391Y46155D01*
X38600Y46205D02*
X52391Y46205D01*
X38600Y46254D02*
X52391Y46254D01*
X38600Y46304D02*
X52391Y46304D01*
X38600Y46353D02*
X52391Y46353D01*
X38607Y46403D02*
X52391Y46403D01*
X38656Y46452D02*
X52391Y46452D01*
X38706Y46502D02*
X52391Y46502D01*
X38756Y46551D02*
X52391Y46551D01*
X38805Y46601D02*
X52391Y46601D01*
X38855Y46650D02*
X52391Y46650D01*
X38904Y46700D02*
X52391Y46700D01*
X38954Y46750D02*
X52391Y46750D01*
X39003Y46799D02*
X52391Y46799D01*
X39053Y46849D02*
X52391Y46849D01*
X39102Y46898D02*
X52391Y46898D01*
X39152Y46948D02*
X52391Y46948D01*
X39201Y46997D02*
X52391Y46997D01*
X39251Y47047D02*
X52391Y47047D01*
X39300Y47096D02*
X52391Y47096D01*
X39350Y47146D02*
X52391Y47146D01*
X39399Y47195D02*
X52342Y47195D01*
X39449Y47245D02*
X52270Y47245D01*
X39498Y47294D02*
X52198Y47294D01*
X39548Y47344D02*
X52127Y47344D01*
X39598Y47393D02*
X52055Y47393D01*
X39647Y47443D02*
X51983Y47443D01*
X39697Y47492D02*
X51911Y47492D01*
X39746Y47542D02*
X51839Y47542D01*
X39796Y47592D02*
X51768Y47592D01*
X64103Y33804D02*
X64103Y33804D01*
X64237Y34334*
X64101Y34556*
X64100Y34558*
X64002Y34795*
X63968Y34876*
X63968Y34878*
X63887Y35213*
X63887Y35215*
X63860Y35559*
X63860Y35561*
X63887Y35905*
X63887Y35907*
X63968Y36242*
X63968Y36244*
X64100Y36562*
X64101Y36564*
X64281Y36858*
X64283Y36860*
X64350Y36938*
X64350Y37011*
X64364Y37025*
X64424Y37025*
X64506Y37122*
X64508Y37124*
X64770Y37347*
X64772Y37349*
X65066Y37529*
X65068Y37530*
X65386Y37662*
X65388Y37662*
X65723Y37743*
X65725Y37743*
X66069Y37770*
X66071Y37770*
X66315Y37751*
X66479Y37924*
X66728Y38467*
X65490Y39928*
X65303Y40115*
X65300Y40124*
X65300Y48500*
X57088Y48500*
X56404Y47815*
X56403Y47814*
X56264Y47708*
X56261Y47706*
X56099Y47639*
X56096Y47638*
X55922Y47615*
X55921Y47615*
X54116Y47615*
X53459Y47162*
X53459Y34025*
X53459Y33989*
X54126Y33550*
X64010Y33550*
X64103Y33804*
X54090Y33575D02*
X64019Y33575D01*
X54014Y33624D02*
X64037Y33624D01*
X53939Y33674D02*
X64055Y33674D01*
X53863Y33723D02*
X64073Y33723D01*
X53788Y33773D02*
X64091Y33773D01*
X53713Y33822D02*
X64108Y33822D01*
X53637Y33872D02*
X64120Y33872D01*
X53562Y33921D02*
X64133Y33921D01*
X53487Y33971D02*
X64145Y33971D01*
X53459Y34020D02*
X64158Y34020D01*
X53459Y34070D02*
X64170Y34070D01*
X53459Y34119D02*
X64183Y34119D01*
X53459Y34169D02*
X64196Y34169D01*
X53459Y34218D02*
X64208Y34218D01*
X53459Y34268D02*
X64221Y34268D01*
X53459Y34317D02*
X64233Y34317D01*
X53459Y34367D02*
X64217Y34367D01*
X53459Y34417D02*
X64187Y34417D01*
X53459Y34466D02*
X64156Y34466D01*
X53459Y34516D02*
X64126Y34516D01*
X53459Y34565D02*
X64097Y34565D01*
X53459Y34615D02*
X64077Y34615D01*
X53459Y34664D02*
X64056Y34664D01*
X53459Y34714D02*
X64036Y34714D01*
X53459Y34763D02*
X64015Y34763D01*
X53459Y34813D02*
X63995Y34813D01*
X53459Y34862D02*
X63974Y34862D01*
X53459Y34912D02*
X63960Y34912D01*
X53459Y34961D02*
X63948Y34961D01*
X53459Y35011D02*
X63936Y35011D01*
X53459Y35060D02*
X63924Y35060D01*
X53459Y35110D02*
X63912Y35110D01*
X53459Y35159D02*
X63900Y35159D01*
X53459Y35209D02*
X63888Y35209D01*
X53459Y35259D02*
X63884Y35259D01*
X53459Y35308D02*
X63880Y35308D01*
X53459Y35358D02*
X63876Y35358D01*
X53459Y35407D02*
X63872Y35407D01*
X53459Y35457D02*
X63868Y35457D01*
X53459Y35506D02*
X63864Y35506D01*
X53459Y35556D02*
X63860Y35556D01*
X53459Y35605D02*
X63863Y35605D01*
X53459Y35655D02*
X63867Y35655D01*
X53459Y35704D02*
X63871Y35704D01*
X53459Y35754D02*
X63875Y35754D01*
X53459Y35803D02*
X63879Y35803D01*
X53459Y35853D02*
X63883Y35853D01*
X53459Y35902D02*
X63887Y35902D01*
X53459Y35952D02*
X63898Y35952D01*
X53459Y36001D02*
X63910Y36001D01*
X53459Y36051D02*
X63922Y36051D01*
X53459Y36101D02*
X63934Y36101D01*
X53459Y36150D02*
X63946Y36150D01*
X53459Y36200D02*
X63958Y36200D01*
X53459Y36249D02*
X63971Y36249D01*
X53459Y36299D02*
X63991Y36299D01*
X53459Y36348D02*
X64012Y36348D01*
X53459Y36398D02*
X64032Y36398D01*
X53459Y36447D02*
X64053Y36447D01*
X53459Y36497D02*
X64073Y36497D01*
X53459Y36546D02*
X64094Y36546D01*
X53459Y36596D02*
X64121Y36596D01*
X53459Y36645D02*
X64151Y36645D01*
X53459Y36695D02*
X64181Y36695D01*
X53459Y36744D02*
X64212Y36744D01*
X53459Y36794D02*
X64242Y36794D01*
X53459Y36844D02*
X64272Y36844D01*
X53459Y36893D02*
X64311Y36893D01*
X53459Y36943D02*
X64350Y36943D01*
X53459Y36992D02*
X64350Y36992D01*
X53459Y37042D02*
X64438Y37042D01*
X53459Y37091D02*
X64480Y37091D01*
X53459Y37141D02*
X64528Y37141D01*
X53459Y37190D02*
X64586Y37190D01*
X53459Y37240D02*
X64644Y37240D01*
X53459Y37289D02*
X64702Y37289D01*
X53459Y37339D02*
X64760Y37339D01*
X53459Y37388D02*
X64837Y37388D01*
X53459Y37438D02*
X64917Y37438D01*
X53459Y37487D02*
X64998Y37487D01*
X53459Y37537D02*
X65085Y37537D01*
X53459Y37586D02*
X65205Y37586D01*
X53459Y37636D02*
X65324Y37636D01*
X53459Y37686D02*
X65485Y37686D01*
X53459Y37735D02*
X65691Y37735D01*
X53459Y37785D02*
X66346Y37785D01*
X53459Y37834D02*
X66393Y37834D01*
X53459Y37884D02*
X66440Y37884D01*
X53459Y37933D02*
X66483Y37933D01*
X53459Y37983D02*
X66506Y37983D01*
X53459Y38032D02*
X66528Y38032D01*
X53459Y38082D02*
X66551Y38082D01*
X53459Y38131D02*
X66574Y38131D01*
X53459Y38181D02*
X66597Y38181D01*
X53459Y38230D02*
X66620Y38230D01*
X53459Y38280D02*
X66642Y38280D01*
X53459Y38329D02*
X66665Y38329D01*
X53459Y38379D02*
X66688Y38379D01*
X53459Y38428D02*
X66711Y38428D01*
X53459Y38478D02*
X66719Y38478D01*
X53459Y38528D02*
X66677Y38528D01*
X53459Y38577D02*
X66635Y38577D01*
X53459Y38627D02*
X66593Y38627D01*
X53459Y38676D02*
X66551Y38676D01*
X53459Y38726D02*
X66509Y38726D01*
X53459Y38775D02*
X66467Y38775D01*
X53459Y38825D02*
X66425Y38825D01*
X53459Y38874D02*
X66383Y38874D01*
X53459Y38924D02*
X66341Y38924D01*
X53459Y38973D02*
X66299Y38973D01*
X53459Y39023D02*
X66257Y39023D01*
X53459Y39072D02*
X66215Y39072D01*
X53459Y39122D02*
X66173Y39122D01*
X53459Y39171D02*
X66131Y39171D01*
X53459Y39221D02*
X66089Y39221D01*
X53459Y39270D02*
X66047Y39270D01*
X53459Y39320D02*
X66005Y39320D01*
X53459Y39370D02*
X65963Y39370D01*
X53459Y39419D02*
X65921Y39419D01*
X53459Y39469D02*
X65879Y39469D01*
X53459Y39518D02*
X65837Y39518D01*
X53459Y39568D02*
X65795Y39568D01*
X53459Y39617D02*
X65753Y39617D01*
X53459Y39667D02*
X65711Y39667D01*
X53459Y39716D02*
X65670Y39716D01*
X53459Y39766D02*
X65628Y39766D01*
X53459Y39815D02*
X65586Y39815D01*
X53459Y39865D02*
X65544Y39865D01*
X53459Y39914D02*
X65502Y39914D01*
X53459Y39964D02*
X65454Y39964D01*
X53459Y40013D02*
X65405Y40013D01*
X53459Y40063D02*
X65355Y40063D01*
X53459Y40112D02*
X65306Y40112D01*
X53459Y40162D02*
X65300Y40162D01*
X53459Y40212D02*
X65300Y40212D01*
X53459Y40261D02*
X65300Y40261D01*
X53459Y40311D02*
X65300Y40311D01*
X53459Y40360D02*
X65300Y40360D01*
X53459Y40410D02*
X65300Y40410D01*
X53459Y40459D02*
X65300Y40459D01*
X53459Y40509D02*
X65300Y40509D01*
X53459Y40558D02*
X65300Y40558D01*
X53459Y40608D02*
X65300Y40608D01*
X53459Y40657D02*
X65300Y40657D01*
X53459Y40707D02*
X65300Y40707D01*
X53459Y40756D02*
X65300Y40756D01*
X53459Y40806D02*
X65300Y40806D01*
X53459Y40855D02*
X65300Y40855D01*
X53459Y40905D02*
X65300Y40905D01*
X53459Y40954D02*
X65300Y40954D01*
X53459Y41004D02*
X65300Y41004D01*
X53459Y41054D02*
X65300Y41054D01*
X53459Y41103D02*
X65300Y41103D01*
X53459Y41153D02*
X65300Y41153D01*
X53459Y41202D02*
X65300Y41202D01*
X53459Y41252D02*
X65300Y41252D01*
X53459Y41301D02*
X65300Y41301D01*
X53459Y41351D02*
X65300Y41351D01*
X53459Y41400D02*
X65300Y41400D01*
X53459Y41450D02*
X65300Y41450D01*
X53459Y41499D02*
X65300Y41499D01*
X53459Y41549D02*
X65300Y41549D01*
X53459Y41598D02*
X65300Y41598D01*
X53459Y41648D02*
X65300Y41648D01*
X53459Y41697D02*
X65300Y41697D01*
X53459Y41747D02*
X65300Y41747D01*
X53459Y41797D02*
X65300Y41797D01*
X53459Y41846D02*
X65300Y41846D01*
X53459Y41896D02*
X65300Y41896D01*
X53459Y41945D02*
X65300Y41945D01*
X53459Y41995D02*
X65300Y41995D01*
X53459Y42044D02*
X65300Y42044D01*
X53459Y42094D02*
X65300Y42094D01*
X53459Y42143D02*
X65300Y42143D01*
X53459Y42193D02*
X65300Y42193D01*
X53459Y42242D02*
X65300Y42242D01*
X53459Y42292D02*
X65300Y42292D01*
X53459Y42341D02*
X65300Y42341D01*
X53459Y42391D02*
X65300Y42391D01*
X53459Y42440D02*
X65300Y42440D01*
X53459Y42490D02*
X65300Y42490D01*
X53459Y42539D02*
X65300Y42539D01*
X53459Y42589D02*
X65300Y42589D01*
X53459Y42639D02*
X65300Y42639D01*
X53459Y42688D02*
X65300Y42688D01*
X53459Y42738D02*
X65300Y42738D01*
X53459Y42787D02*
X65300Y42787D01*
X53459Y42837D02*
X65300Y42837D01*
X53459Y42886D02*
X65300Y42886D01*
X53459Y42936D02*
X65300Y42936D01*
X53459Y42985D02*
X65300Y42985D01*
X53459Y43035D02*
X65300Y43035D01*
X53459Y43084D02*
X65300Y43084D01*
X53459Y43134D02*
X65300Y43134D01*
X53459Y43183D02*
X65300Y43183D01*
X53459Y43233D02*
X65300Y43233D01*
X53459Y43282D02*
X65300Y43282D01*
X53459Y43332D02*
X65300Y43332D01*
X53459Y43381D02*
X65300Y43381D01*
X53459Y43431D02*
X65300Y43431D01*
X53459Y43481D02*
X65300Y43481D01*
X53459Y43530D02*
X65300Y43530D01*
X53459Y43580D02*
X65300Y43580D01*
X53459Y43629D02*
X65300Y43629D01*
X53459Y43679D02*
X65300Y43679D01*
X53459Y43728D02*
X65300Y43728D01*
X53459Y43778D02*
X65300Y43778D01*
X53459Y43827D02*
X65300Y43827D01*
X53459Y43877D02*
X65300Y43877D01*
X53459Y43926D02*
X65300Y43926D01*
X53459Y43976D02*
X65300Y43976D01*
X53459Y44025D02*
X65300Y44025D01*
X53459Y44075D02*
X65300Y44075D01*
X53459Y44124D02*
X65300Y44124D01*
X53459Y44174D02*
X65300Y44174D01*
X53459Y44223D02*
X65300Y44223D01*
X53459Y44273D02*
X65300Y44273D01*
X53459Y44323D02*
X65300Y44323D01*
X53459Y44372D02*
X65300Y44372D01*
X53459Y44422D02*
X65300Y44422D01*
X53459Y44471D02*
X65300Y44471D01*
X53459Y44521D02*
X65300Y44521D01*
X53459Y44570D02*
X65300Y44570D01*
X53459Y44620D02*
X65300Y44620D01*
X53459Y44669D02*
X65300Y44669D01*
X53459Y44719D02*
X65300Y44719D01*
X53459Y44768D02*
X65300Y44768D01*
X53459Y44818D02*
X65300Y44818D01*
X53459Y44867D02*
X65300Y44867D01*
X53459Y44917D02*
X65300Y44917D01*
X53459Y44966D02*
X65300Y44966D01*
X53459Y45016D02*
X65300Y45016D01*
X53459Y45065D02*
X65300Y45065D01*
X53459Y45115D02*
X65300Y45115D01*
X53459Y45165D02*
X65300Y45165D01*
X53459Y45214D02*
X65300Y45214D01*
X53459Y45264D02*
X65300Y45264D01*
X53459Y45313D02*
X65300Y45313D01*
X53459Y45363D02*
X65300Y45363D01*
X53459Y45412D02*
X65300Y45412D01*
X53459Y45462D02*
X65300Y45462D01*
X53459Y45511D02*
X65300Y45511D01*
X53459Y45561D02*
X65300Y45561D01*
X53459Y45610D02*
X65300Y45610D01*
X53459Y45660D02*
X65300Y45660D01*
X53459Y45709D02*
X65300Y45709D01*
X53459Y45759D02*
X65300Y45759D01*
X53459Y45808D02*
X65300Y45808D01*
X53459Y45858D02*
X65300Y45858D01*
X53459Y45907D02*
X65300Y45907D01*
X53459Y45957D02*
X65300Y45957D01*
X53459Y46007D02*
X65300Y46007D01*
X53459Y46056D02*
X65300Y46056D01*
X53459Y46106D02*
X65300Y46106D01*
X53459Y46155D02*
X65300Y46155D01*
X53459Y46205D02*
X65300Y46205D01*
X53459Y46254D02*
X65300Y46254D01*
X53459Y46304D02*
X65300Y46304D01*
X53459Y46353D02*
X65300Y46353D01*
X53459Y46403D02*
X65300Y46403D01*
X53459Y46452D02*
X65300Y46452D01*
X53459Y46502D02*
X65300Y46502D01*
X53459Y46551D02*
X65300Y46551D01*
X53459Y46601D02*
X65300Y46601D01*
X53459Y46650D02*
X65300Y46650D01*
X53459Y46700D02*
X65300Y46700D01*
X53459Y46750D02*
X65300Y46750D01*
X53459Y46799D02*
X65300Y46799D01*
X53459Y46849D02*
X65300Y46849D01*
X53459Y46898D02*
X65300Y46898D01*
X53459Y46948D02*
X65300Y46948D01*
X53459Y46997D02*
X65300Y46997D01*
X53459Y47047D02*
X65300Y47047D01*
X53459Y47096D02*
X65300Y47096D01*
X53459Y47146D02*
X65300Y47146D01*
X53508Y47195D02*
X65300Y47195D01*
X53580Y47245D02*
X65300Y47245D01*
X53652Y47294D02*
X65300Y47294D01*
X53723Y47344D02*
X65300Y47344D01*
X53795Y47393D02*
X65300Y47393D01*
X53867Y47443D02*
X65300Y47443D01*
X53939Y47492D02*
X65300Y47492D01*
X54011Y47542D02*
X65300Y47542D01*
X54082Y47592D02*
X65300Y47592D01*
X56105Y47641D02*
X65300Y47641D01*
X56224Y47691D02*
X65300Y47691D01*
X56306Y47740D02*
X65300Y47740D01*
X56371Y47790D02*
X65300Y47790D01*
X56428Y47839D02*
X65300Y47839D01*
X56477Y47889D02*
X65300Y47889D01*
X56527Y47938D02*
X65300Y47938D01*
X56577Y47988D02*
X65300Y47988D01*
X56626Y48037D02*
X65300Y48037D01*
X56676Y48087D02*
X65300Y48087D01*
X56725Y48136D02*
X65300Y48136D01*
X56775Y48186D02*
X65300Y48186D01*
X56824Y48235D02*
X65300Y48235D01*
X56874Y48285D02*
X65300Y48285D01*
X56923Y48334D02*
X65300Y48334D01*
X56973Y48384D02*
X65300Y48384D01*
X57022Y48434D02*
X65300Y48434D01*
X57072Y48483D02*
X65300Y48483D01*
%LNpour fill*%
X10553Y15794D02*
X10553Y15794D01*
X2604Y15794*
X2604Y5845*
X10553Y5845*
X10553Y15794*
X2604Y5869D02*
X10553Y5869D01*
X2604Y5918D02*
X10553Y5918D01*
X2604Y5968D02*
X10553Y5968D01*
X2604Y6018D02*
X10553Y6018D01*
X2604Y6067D02*
X10553Y6067D01*
X2604Y6117D02*
X10553Y6117D01*
X2604Y6166D02*
X10553Y6166D01*
X2604Y6216D02*
X10553Y6216D01*
X2604Y6265D02*
X10553Y6265D01*
X2604Y6315D02*
X10553Y6315D01*
X2604Y6364D02*
X10553Y6364D01*
X2604Y6414D02*
X10553Y6414D01*
X2604Y6463D02*
X10553Y6463D01*
X2604Y6513D02*
X10553Y6513D01*
X2604Y6562D02*
X10553Y6562D01*
X2604Y6612D02*
X10553Y6612D01*
X2604Y6661D02*
X10553Y6661D01*
X2604Y6711D02*
X10553Y6711D01*
X2604Y6760D02*
X10553Y6760D01*
X2604Y6810D02*
X10553Y6810D01*
X2604Y6860D02*
X10553Y6860D01*
X2604Y6909D02*
X10553Y6909D01*
X2604Y6959D02*
X10553Y6959D01*
X2604Y7008D02*
X10553Y7008D01*
X2604Y7058D02*
X10553Y7058D01*
X2604Y7107D02*
X10553Y7107D01*
X2604Y7157D02*
X10553Y7157D01*
X2604Y7206D02*
X10553Y7206D01*
X2604Y7256D02*
X10553Y7256D01*
X2604Y7305D02*
X10553Y7305D01*
X2604Y7355D02*
X10553Y7355D01*
X2604Y7404D02*
X10553Y7404D01*
X2604Y7454D02*
X10553Y7454D01*
X2604Y7503D02*
X10553Y7503D01*
X2604Y7553D02*
X10553Y7553D01*
X2604Y7602D02*
X10553Y7602D01*
X2604Y7652D02*
X10553Y7652D01*
X2604Y7702D02*
X10553Y7702D01*
X2604Y7751D02*
X10553Y7751D01*
X2604Y7801D02*
X10553Y7801D01*
X2604Y7850D02*
X10553Y7850D01*
X2604Y7900D02*
X10553Y7900D01*
X2604Y7949D02*
X10553Y7949D01*
X2604Y7999D02*
X10553Y7999D01*
X2604Y8048D02*
X10553Y8048D01*
X2604Y8098D02*
X10553Y8098D01*
X2604Y8147D02*
X10553Y8147D01*
X2604Y8197D02*
X10553Y8197D01*
X2604Y8246D02*
X10553Y8246D01*
X2604Y8296D02*
X10553Y8296D01*
X2604Y8345D02*
X10553Y8345D01*
X2604Y8395D02*
X10553Y8395D01*
X2604Y8445D02*
X10553Y8445D01*
X2604Y8494D02*
X10553Y8494D01*
X2604Y8544D02*
X10553Y8544D01*
X2604Y8593D02*
X10553Y8593D01*
X2604Y8643D02*
X10553Y8643D01*
X2604Y8692D02*
X10553Y8692D01*
X2604Y8742D02*
X10553Y8742D01*
X2604Y8791D02*
X10553Y8791D01*
X2604Y8841D02*
X10553Y8841D01*
X2604Y8890D02*
X10553Y8890D01*
X2604Y8940D02*
X10553Y8940D01*
X2604Y8989D02*
X10553Y8989D01*
X2604Y9039D02*
X10553Y9039D01*
X2604Y9088D02*
X10553Y9088D01*
X2604Y9138D02*
X10553Y9138D01*
X2604Y9187D02*
X10553Y9187D01*
X2604Y9237D02*
X10553Y9237D01*
X2604Y9287D02*
X10553Y9287D01*
X2604Y9336D02*
X10553Y9336D01*
X2604Y9386D02*
X10553Y9386D01*
X2604Y9435D02*
X10553Y9435D01*
X2604Y9485D02*
X10553Y9485D01*
X2604Y9534D02*
X10553Y9534D01*
X2604Y9584D02*
X10553Y9584D01*
X2604Y9633D02*
X10553Y9633D01*
X2604Y9683D02*
X10553Y9683D01*
X2604Y9732D02*
X10553Y9732D01*
X2604Y9782D02*
X10553Y9782D01*
X2604Y9831D02*
X10553Y9831D01*
X2604Y9881D02*
X10553Y9881D01*
X2604Y9930D02*
X10553Y9930D01*
X2604Y9980D02*
X10553Y9980D01*
X2604Y10029D02*
X10553Y10029D01*
X2604Y10079D02*
X10553Y10079D01*
X2604Y10129D02*
X10553Y10129D01*
X2604Y10178D02*
X10553Y10178D01*
X2604Y10228D02*
X10553Y10228D01*
X2604Y10277D02*
X10553Y10277D01*
X2604Y10327D02*
X10553Y10327D01*
X2604Y10376D02*
X10553Y10376D01*
X2604Y10426D02*
X10553Y10426D01*
X2604Y10475D02*
X10553Y10475D01*
X2604Y10525D02*
X10553Y10525D01*
X2604Y10574D02*
X10553Y10574D01*
X2604Y10624D02*
X10553Y10624D01*
X2604Y10673D02*
X10553Y10673D01*
X2604Y10723D02*
X10553Y10723D01*
X2604Y10772D02*
X10553Y10772D01*
X2604Y10822D02*
X10553Y10822D01*
X2604Y10871D02*
X10553Y10871D01*
X2604Y10921D02*
X10553Y10921D01*
X2604Y10971D02*
X10553Y10971D01*
X2604Y11020D02*
X10553Y11020D01*
X2604Y11070D02*
X10553Y11070D01*
X2604Y11119D02*
X10553Y11119D01*
X2604Y11169D02*
X10553Y11169D01*
X2604Y11218D02*
X10553Y11218D01*
X2604Y11268D02*
X10553Y11268D01*
X2604Y11317D02*
X10553Y11317D01*
X2604Y11367D02*
X10553Y11367D01*
X2604Y11416D02*
X10553Y11416D01*
X2604Y11466D02*
X10553Y11466D01*
X2604Y11515D02*
X10553Y11515D01*
X2604Y11565D02*
X10553Y11565D01*
X2604Y11614D02*
X10553Y11614D01*
X2604Y11664D02*
X10553Y11664D01*
X2604Y11713D02*
X10553Y11713D01*
X2604Y11763D02*
X10553Y11763D01*
X2604Y11813D02*
X10553Y11813D01*
X2604Y11862D02*
X10553Y11862D01*
X2604Y11912D02*
X10553Y11912D01*
X2604Y11961D02*
X10553Y11961D01*
X2604Y12011D02*
X10553Y12011D01*
X2604Y12060D02*
X10553Y12060D01*
X2604Y12110D02*
X10553Y12110D01*
X2604Y12159D02*
X10553Y12159D01*
X2604Y12209D02*
X10553Y12209D01*
X2604Y12258D02*
X10553Y12258D01*
X2604Y12308D02*
X10553Y12308D01*
X2604Y12357D02*
X10553Y12357D01*
X2604Y12407D02*
X10553Y12407D01*
X2604Y12456D02*
X10553Y12456D01*
X2604Y12506D02*
X10553Y12506D01*
X2604Y12555D02*
X10553Y12555D01*
X2604Y12605D02*
X10553Y12605D01*
X2604Y12655D02*
X10553Y12655D01*
X2604Y12704D02*
X10553Y12704D01*
X2604Y12754D02*
X10553Y12754D01*
X2604Y12803D02*
X10553Y12803D01*
X2604Y12853D02*
X10553Y12853D01*
X2604Y12902D02*
X10553Y12902D01*
X2604Y12952D02*
X10553Y12952D01*
X2604Y13001D02*
X10553Y13001D01*
X2604Y13051D02*
X10553Y13051D01*
X2604Y13100D02*
X10553Y13100D01*
X2604Y13150D02*
X10553Y13150D01*
X2604Y13199D02*
X10553Y13199D01*
X2604Y13249D02*
X10553Y13249D01*
X2604Y13298D02*
X10553Y13298D01*
X2604Y13348D02*
X10553Y13348D01*
X2604Y13398D02*
X10553Y13398D01*
X2604Y13447D02*
X10553Y13447D01*
X2604Y13497D02*
X10553Y13497D01*
X2604Y13546D02*
X10553Y13546D01*
X2604Y13596D02*
X10553Y13596D01*
X2604Y13645D02*
X10553Y13645D01*
X2604Y13695D02*
X10553Y13695D01*
X2604Y13744D02*
X10553Y13744D01*
X2604Y13794D02*
X10553Y13794D01*
X2604Y13843D02*
X10553Y13843D01*
X2604Y13893D02*
X10553Y13893D01*
X2604Y13942D02*
X10553Y13942D01*
X2604Y13992D02*
X10553Y13992D01*
X2604Y14041D02*
X10553Y14041D01*
X2604Y14091D02*
X10553Y14091D01*
X2604Y14140D02*
X10553Y14140D01*
X2604Y14190D02*
X10553Y14190D01*
X2604Y14240D02*
X10553Y14240D01*
X2604Y14289D02*
X10553Y14289D01*
X2604Y14339D02*
X10553Y14339D01*
X2604Y14388D02*
X10553Y14388D01*
X2604Y14438D02*
X10553Y14438D01*
X2604Y14487D02*
X10553Y14487D01*
X2604Y14537D02*
X10553Y14537D01*
X2604Y14586D02*
X10553Y14586D01*
X2604Y14636D02*
X10553Y14636D01*
X2604Y14685D02*
X10553Y14685D01*
X2604Y14735D02*
X10553Y14735D01*
X2604Y14784D02*
X10553Y14784D01*
X2604Y14834D02*
X10553Y14834D01*
X2604Y14883D02*
X10553Y14883D01*
X2604Y14933D02*
X10553Y14933D01*
X2604Y14982D02*
X10553Y14982D01*
X2604Y15032D02*
X10553Y15032D01*
X2604Y15082D02*
X10553Y15082D01*
X2604Y15131D02*
X10553Y15131D01*
X2604Y15181D02*
X10553Y15181D01*
X2604Y15230D02*
X10553Y15230D01*
X2604Y15280D02*
X10553Y15280D01*
X2604Y15329D02*
X10553Y15329D01*
X2604Y15379D02*
X10553Y15379D01*
X2604Y15428D02*
X10553Y15428D01*
X2604Y15478D02*
X10553Y15478D01*
X2604Y15527D02*
X10553Y15527D01*
X2604Y15577D02*
X10553Y15577D01*
X2604Y15626D02*
X10553Y15626D01*
X2604Y15676D02*
X10553Y15676D01*
X2604Y15725D02*
X10553Y15725D01*
X2604Y15775D02*
X10553Y15775D01*
%LNpour fill*%
X35328Y3901D02*
X35328Y3901D01*
X35559Y3924*
X35561Y3924*
X35792Y3901*
X35794Y3900*
X36390Y3900*
X36390Y11176*
X36390Y11178*
X36413Y11351*
X36414Y11354*
X36444Y11426*
X36080Y11790*
X35877Y11874*
X35874Y11876*
X35676Y12028*
X35674Y12030*
X35522Y12228*
X35521Y12231*
X35437Y12434*
X35339Y12531*
X33672Y12531*
X33516Y12510*
X33515Y12510*
X27414Y12510*
X27414Y12025*
X27414Y12023*
X27393Y11867*
X27393Y10907*
X27378Y10892*
X24711Y10892*
X24682Y10864*
X24681Y10863*
X24542Y10756*
X24540Y10755*
X24377Y10688*
X24374Y10687*
X24337Y10682*
X24268Y10629*
X24265Y10627*
X24067Y10545*
X24064Y10544*
X23852Y10517*
X23848Y10517*
X23636Y10544*
X23633Y10545*
X23435Y10627*
X23432Y10629*
X23263Y10759*
X23260Y10761*
X23130Y10931*
X23128Y10934*
X23046Y11132*
X23046Y11135*
X23018Y11347*
X23018Y11350*
X23046Y11563*
X23046Y11566*
X23128Y11764*
X23130Y11766*
X23193Y11849*
X23130Y11931*
X23128Y11934*
X23046Y12132*
X23046Y12135*
X23018Y12347*
X23018Y12350*
X23046Y12563*
X23046Y12566*
X23128Y12764*
X23130Y12766*
X23193Y12849*
X23130Y12931*
X23128Y12934*
X23046Y13132*
X23046Y13135*
X23018Y13347*
X23018Y13350*
X23046Y13563*
X23046Y13566*
X23128Y13762*
X23128Y13762*
X23224Y13984*
X23128Y14205*
X23128Y14206*
X23046Y14402*
X23046Y14405*
X23018Y14617*
X23018Y14620*
X23046Y14833*
X23046Y14836*
X23128Y15034*
X23130Y15036*
X23193Y15119*
X23130Y15201*
X23128Y15204*
X23046Y15402*
X23046Y15405*
X23018Y15617*
X23018Y15620*
X23046Y15833*
X23046Y15836*
X23128Y16034*
X23130Y16036*
X23193Y16119*
X23130Y16201*
X23128Y16204*
X23046Y16402*
X23046Y16405*
X23018Y16617*
X23018Y16620*
X23046Y16833*
X23046Y16836*
X23128Y17034*
X23130Y17036*
X23260Y17206*
X23263Y17209*
X23432Y17339*
X23435Y17340*
X23633Y17422*
X23636Y17423*
X23848Y17451*
X23852Y17451*
X24064Y17423*
X24067Y17422*
X24265Y17340*
X24268Y17339*
X24314Y17303*
X24483Y17281*
X24487Y17280*
X24649Y17213*
X24652Y17211*
X24790Y17105*
X24792Y17104*
X24820Y17075*
X27563Y17075*
X30250Y19762*
X30250Y19919*
X30201Y19992*
X30199Y19997*
X30167Y20156*
X30167Y20159*
X30167Y22876*
X30167Y22879*
X30199Y23038*
X30201Y23043*
X30250Y23116*
X30250Y23161*
X30264Y23175*
X30289Y23175*
X30292Y23180*
X30295Y23183*
X30432Y23274*
X30437Y23276*
X30596Y23308*
X30599Y23308*
X34511Y23308*
X34511Y27392*
X34433Y27480*
X34036Y27679*
X34017Y27671*
X34014Y27671*
X33802Y27643*
X33798Y27643*
X33662Y27661*
X33186Y27714*
X31506Y27714*
X31491Y27729*
X31491Y28936*
X31277Y29124*
X31039Y29155*
X31036Y29156*
X30805Y29252*
X30802Y29253*
X30604Y29405*
X30602Y29408*
X30450Y29606*
X30449Y29609*
X30353Y29839*
X30352Y29842*
X30320Y30090*
X30320Y30093*
X30352Y30340*
X30353Y30344*
X30449Y30574*
X30450Y30577*
X30602Y30775*
X30604Y30777*
X30802Y30929*
X30805Y30931*
X31036Y31026*
X31039Y31027*
X31277Y31059*
X31491Y31246*
X31491Y31771*
X31506Y31786*
X32015Y31786*
X32133Y31835*
X32137Y31836*
X32350Y31864*
X32354Y31864*
X32568Y31836*
X32571Y31835*
X32689Y31786*
X33198Y31786*
X33213Y31771*
X33213Y31222*
X33399Y31059*
X33637Y31027*
X33640Y31026*
X33871Y30931*
X33874Y30929*
X34044Y30799*
X34115Y30810*
X34511Y30969*
X34511Y32602*
X34511Y32604*
X34539Y32817*
X34540Y32820*
X34623Y33019*
X34624Y33022*
X34755Y33192*
X34756Y33194*
X35275Y33712*
X35275Y35278*
X27176Y35278*
X26954Y35057*
X26953Y35055*
X26814Y34949*
X26811Y34947*
X26693Y34898*
X26593Y34822*
X26590Y34820*
X26392Y34738*
X26389Y34737*
X26177Y34709*
X26173Y34709*
X25961Y34737*
X25958Y34738*
X25760Y34820*
X25757Y34822*
X25588Y34952*
X25585Y34954*
X25455Y35124*
X25453Y35127*
X25371Y35325*
X25371Y35328*
X25343Y35540*
X25343Y35543*
X25371Y35755*
X25371Y35759*
X25453Y35956*
X25455Y35959*
X25518Y36042*
X25455Y36124*
X25453Y36127*
X25371Y36325*
X25371Y36328*
X25343Y36540*
X25343Y36543*
X25371Y36755*
X25371Y36759*
X25453Y36956*
X25455Y36959*
X25518Y37042*
X25455Y37124*
X25453Y37127*
X25371Y37325*
X25371Y37328*
X25343Y37540*
X25343Y37543*
X25371Y37755*
X25371Y37759*
X25453Y37956*
X25455Y37959*
X25579Y38121*
X25579Y38232*
X25455Y38394*
X25453Y38397*
X25393Y38543*
X25317Y38614*
X25253Y38646*
X24889Y38778*
X24727Y38711*
X24724Y38710*
X24477Y38678*
X24473Y38678*
X24226Y38710*
X24223Y38711*
X23992Y38807*
X23989Y38808*
X23791Y38960*
X23789Y38963*
X23637Y39161*
X23635Y39163*
X23548Y39374*
X23100Y39304*
X23100Y39236*
X23086Y39221*
X19764Y39221*
X19750Y39236*
X19750Y41857*
X19764Y41872*
X23086Y41872*
X23100Y41857*
X23100Y41789*
X23548Y41718*
X23635Y41929*
X23637Y41932*
X23789Y42130*
X23791Y42132*
X23989Y42284*
X23992Y42286*
X24223Y42381*
X24226Y42382*
X24473Y42415*
X24477Y42415*
X24724Y42382*
X24727Y42381*
X24958Y42286*
X24961Y42284*
X25159Y42132*
X25161Y42130*
X25313Y41932*
X25315Y41929*
X25358Y41824*
X25585Y41669*
X25904Y41593*
X25958Y41615*
X25961Y41616*
X26173Y41644*
X26177Y41644*
X26389Y41616*
X26392Y41615*
X26590Y41533*
X26593Y41532*
X26693Y41455*
X26811Y41406*
X26814Y41404*
X26953Y41298*
X26954Y41297*
X27176Y41075*
X29460Y41075*
X29460Y45964*
X29453Y45964*
X29438Y45979*
X29438Y47460*
X29438Y47679*
X29422Y47694*
X28934Y47565*
X28931Y47564*
X27459Y47564*
X27229Y47564*
X27229Y47564*
X25748Y47564*
X25733Y47579*
X25733Y47586*
X12874Y47586*
X12873Y47586*
X12660Y47614*
X12656Y47615*
X12457Y47698*
X12454Y47699*
X12284Y47830*
X12282Y47831*
X9428Y50686*
X3597Y50686*
X2514Y49603*
X2514Y16450*
X11261Y16450*
X11275Y16436*
X11275Y3900*
X12234Y3900*
X12406Y4102*
X12408Y4104*
X12670Y4327*
X12672Y4329*
X12966Y4509*
X12968Y4510*
X13286Y4642*
X13288Y4642*
X13623Y4723*
X13625Y4723*
X13969Y4750*
X13971Y4750*
X14315Y4723*
X14317Y4723*
X14652Y4642*
X14654Y4642*
X14972Y4510*
X14974Y4509*
X15268Y4329*
X15270Y4327*
X15532Y4104*
X15534Y4102*
X15706Y3900*
X27468Y3900*
X27666Y3960*
X27668Y3961*
X27899Y3984*
X27901Y3984*
X28132Y3961*
X28134Y3960*
X28332Y3900*
X30246Y3900*
X30248Y3901*
X30479Y3924*
X30481Y3924*
X30712Y3901*
X30714Y3900*
X32786Y3900*
X32788Y3901*
X33019Y3924*
X33021Y3924*
X33252Y3901*
X33254Y3900*
X35326Y3900*
X35328Y3901*
X19975Y24589D02*
X19975Y24589D01*
X19975Y26861*
X19961Y26875*
X17689Y26875*
X17675Y26861*
X17675Y24589*
X17689Y24575*
X19961Y24575*
X19975Y24589*
X11275Y3925D02*
X12255Y3925D01*
X15685Y3925D02*
X27548Y3925D01*
X28252Y3925D02*
X36390Y3925D01*
X11275Y3974D02*
X12297Y3974D01*
X15643Y3974D02*
X27803Y3974D01*
X27997Y3974D02*
X36390Y3974D01*
X11275Y4024D02*
X12339Y4024D01*
X15601Y4024D02*
X36390Y4024D01*
X11275Y4073D02*
X12382Y4073D01*
X15558Y4073D02*
X36390Y4073D01*
X11275Y4123D02*
X12430Y4123D01*
X15510Y4123D02*
X36390Y4123D01*
X11275Y4172D02*
X12488Y4172D01*
X15452Y4172D02*
X36390Y4172D01*
X11275Y4222D02*
X12546Y4222D01*
X15394Y4222D02*
X36390Y4222D01*
X11275Y4271D02*
X12604Y4271D01*
X15336Y4271D02*
X36390Y4271D01*
X11275Y4321D02*
X12662Y4321D01*
X15278Y4321D02*
X36390Y4321D01*
X11275Y4370D02*
X12740Y4370D01*
X15200Y4370D02*
X36390Y4370D01*
X11275Y4420D02*
X12821Y4420D01*
X15119Y4420D02*
X36390Y4420D01*
X11275Y4469D02*
X12901Y4469D01*
X15039Y4469D02*
X36390Y4469D01*
X11275Y4519D02*
X12990Y4519D01*
X14950Y4519D02*
X36390Y4519D01*
X11275Y4568D02*
X13109Y4568D01*
X14831Y4568D02*
X36390Y4568D01*
X11275Y4618D02*
X13229Y4618D01*
X14711Y4618D02*
X36390Y4618D01*
X11275Y4667D02*
X13393Y4667D01*
X14547Y4667D02*
X36390Y4667D01*
X11275Y4717D02*
X13599Y4717D01*
X14341Y4717D02*
X36390Y4717D01*
X11275Y4767D02*
X36390Y4767D01*
X11275Y4816D02*
X36390Y4816D01*
X11275Y4866D02*
X36390Y4866D01*
X11275Y4915D02*
X36390Y4915D01*
X11275Y4965D02*
X36390Y4965D01*
X11275Y5014D02*
X36390Y5014D01*
X11275Y5064D02*
X36390Y5064D01*
X11275Y5113D02*
X36390Y5113D01*
X11275Y5163D02*
X36390Y5163D01*
X11275Y5212D02*
X36390Y5212D01*
X11275Y5262D02*
X36390Y5262D01*
X11275Y5311D02*
X36390Y5311D01*
X11275Y5361D02*
X36390Y5361D01*
X11275Y5410D02*
X36390Y5410D01*
X11275Y5460D02*
X36390Y5460D01*
X11275Y5509D02*
X36390Y5509D01*
X11275Y5559D02*
X36390Y5559D01*
X11275Y5609D02*
X36390Y5609D01*
X11275Y5658D02*
X36390Y5658D01*
X11275Y5708D02*
X36390Y5708D01*
X11275Y5757D02*
X36390Y5757D01*
X11275Y5807D02*
X36390Y5807D01*
X11275Y5856D02*
X36390Y5856D01*
X11275Y5906D02*
X36390Y5906D01*
X11275Y5955D02*
X36390Y5955D01*
X11275Y6005D02*
X36390Y6005D01*
X11275Y6054D02*
X36390Y6054D01*
X11275Y6104D02*
X36390Y6104D01*
X11275Y6153D02*
X36390Y6153D01*
X11275Y6203D02*
X36390Y6203D01*
X11275Y6252D02*
X36390Y6252D01*
X11275Y6302D02*
X36390Y6302D01*
X11275Y6351D02*
X36390Y6351D01*
X11275Y6401D02*
X36390Y6401D01*
X11275Y6451D02*
X36390Y6451D01*
X11275Y6500D02*
X36390Y6500D01*
X11275Y6550D02*
X36390Y6550D01*
X11275Y6599D02*
X36390Y6599D01*
X11275Y6649D02*
X36390Y6649D01*
X11275Y6698D02*
X36390Y6698D01*
X11275Y6748D02*
X36390Y6748D01*
X11275Y6797D02*
X36390Y6797D01*
X11275Y6847D02*
X36390Y6847D01*
X11275Y6896D02*
X36390Y6896D01*
X11275Y6946D02*
X36390Y6946D01*
X11275Y6995D02*
X36390Y6995D01*
X11275Y7045D02*
X36390Y7045D01*
X11275Y7094D02*
X36390Y7094D01*
X11275Y7144D02*
X36390Y7144D01*
X11275Y7194D02*
X36390Y7194D01*
X11275Y7243D02*
X36390Y7243D01*
X11275Y7293D02*
X36390Y7293D01*
X11275Y7342D02*
X36390Y7342D01*
X11275Y7392D02*
X36390Y7392D01*
X11275Y7441D02*
X36390Y7441D01*
X11275Y7491D02*
X36390Y7491D01*
X11275Y7540D02*
X36390Y7540D01*
X11275Y7590D02*
X36390Y7590D01*
X11275Y7639D02*
X36390Y7639D01*
X11275Y7689D02*
X36390Y7689D01*
X11275Y7738D02*
X36390Y7738D01*
X11275Y7788D02*
X36390Y7788D01*
X11275Y7837D02*
X36390Y7837D01*
X11275Y7887D02*
X36390Y7887D01*
X11275Y7936D02*
X36390Y7936D01*
X11275Y7986D02*
X36390Y7986D01*
X11275Y8036D02*
X36390Y8036D01*
X11275Y8085D02*
X36390Y8085D01*
X11275Y8135D02*
X36390Y8135D01*
X11275Y8184D02*
X36390Y8184D01*
X11275Y8234D02*
X36390Y8234D01*
X11275Y8283D02*
X36390Y8283D01*
X11275Y8333D02*
X36390Y8333D01*
X11275Y8382D02*
X36390Y8382D01*
X11275Y8432D02*
X36390Y8432D01*
X11275Y8481D02*
X36390Y8481D01*
X11275Y8531D02*
X36390Y8531D01*
X11275Y8580D02*
X36390Y8580D01*
X11275Y8630D02*
X36390Y8630D01*
X11275Y8679D02*
X36390Y8679D01*
X11275Y8729D02*
X36390Y8729D01*
X11275Y8778D02*
X36390Y8778D01*
X11275Y8828D02*
X36390Y8828D01*
X11275Y8878D02*
X36390Y8878D01*
X11275Y8927D02*
X36390Y8927D01*
X11275Y8977D02*
X36390Y8977D01*
X11275Y9026D02*
X36390Y9026D01*
X11275Y9076D02*
X36390Y9076D01*
X11275Y9125D02*
X36390Y9125D01*
X11275Y9175D02*
X36390Y9175D01*
X11275Y9224D02*
X36390Y9224D01*
X11275Y9274D02*
X36390Y9274D01*
X11275Y9323D02*
X36390Y9323D01*
X11275Y9373D02*
X36390Y9373D01*
X11275Y9422D02*
X36390Y9422D01*
X11275Y9472D02*
X36390Y9472D01*
X11275Y9521D02*
X36390Y9521D01*
X11275Y9571D02*
X36390Y9571D01*
X11275Y9620D02*
X36390Y9620D01*
X11275Y9670D02*
X36390Y9670D01*
X11275Y9720D02*
X36390Y9720D01*
X11275Y9769D02*
X36390Y9769D01*
X11275Y9819D02*
X36390Y9819D01*
X11275Y9868D02*
X36390Y9868D01*
X11275Y9918D02*
X36390Y9918D01*
X11275Y9967D02*
X36390Y9967D01*
X11275Y10017D02*
X36390Y10017D01*
X11275Y10066D02*
X36390Y10066D01*
X11275Y10116D02*
X36390Y10116D01*
X11275Y10165D02*
X36390Y10165D01*
X11275Y10215D02*
X36390Y10215D01*
X11275Y10264D02*
X36390Y10264D01*
X11275Y10314D02*
X36390Y10314D01*
X11275Y10363D02*
X36390Y10363D01*
X11275Y10413D02*
X36390Y10413D01*
X11275Y10462D02*
X36390Y10462D01*
X11275Y10512D02*
X36390Y10512D01*
X11275Y10562D02*
X23594Y10562D01*
X24106Y10562D02*
X36390Y10562D01*
X11275Y10611D02*
X23474Y10611D01*
X24226Y10611D02*
X36390Y10611D01*
X11275Y10661D02*
X23391Y10661D01*
X24309Y10661D02*
X36390Y10661D01*
X11275Y10710D02*
X23326Y10710D01*
X24432Y10710D02*
X36390Y10710D01*
X11275Y10760D02*
X23262Y10760D01*
X24547Y10760D02*
X36390Y10760D01*
X11275Y10809D02*
X23224Y10809D01*
X24611Y10809D02*
X36390Y10809D01*
X11275Y10859D02*
X23186Y10859D01*
X24676Y10859D02*
X36390Y10859D01*
X11275Y10908D02*
X23148Y10908D01*
X27393Y10908D02*
X36390Y10908D01*
X11275Y10958D02*
X23119Y10958D01*
X27393Y10958D02*
X36390Y10958D01*
X11275Y11007D02*
X23098Y11007D01*
X27393Y11007D02*
X36390Y11007D01*
X11275Y11057D02*
X23078Y11057D01*
X27393Y11057D02*
X36390Y11057D01*
X11275Y11106D02*
X23057Y11106D01*
X27393Y11106D02*
X36390Y11106D01*
X11275Y11156D02*
X23043Y11156D01*
X27393Y11156D02*
X36390Y11156D01*
X11275Y11205D02*
X23036Y11205D01*
X27393Y11205D02*
X36394Y11205D01*
X11275Y11255D02*
X23030Y11255D01*
X27393Y11255D02*
X36400Y11255D01*
X11275Y11304D02*
X23023Y11304D01*
X27393Y11304D02*
X36407Y11304D01*
X11275Y11354D02*
X23018Y11354D01*
X27393Y11354D02*
X36414Y11354D01*
X11275Y11404D02*
X23025Y11404D01*
X27393Y11404D02*
X36434Y11404D01*
X11275Y11453D02*
X23031Y11453D01*
X27393Y11453D02*
X36417Y11453D01*
X11275Y11503D02*
X23038Y11503D01*
X27393Y11503D02*
X36368Y11503D01*
X11275Y11552D02*
X23044Y11552D01*
X27393Y11552D02*
X36318Y11552D01*
X11275Y11602D02*
X23061Y11602D01*
X27393Y11602D02*
X36269Y11602D01*
X11275Y11651D02*
X23082Y11651D01*
X27393Y11651D02*
X36219Y11651D01*
X11275Y11701D02*
X23102Y11701D01*
X27393Y11701D02*
X36169Y11701D01*
X11275Y11750D02*
X23123Y11750D01*
X27393Y11750D02*
X36120Y11750D01*
X11275Y11800D02*
X23156Y11800D01*
X27393Y11800D02*
X36057Y11800D01*
X11275Y11849D02*
X23193Y11849D01*
X27393Y11849D02*
X35937Y11849D01*
X11275Y11899D02*
X23155Y11899D01*
X27397Y11899D02*
X35844Y11899D01*
X11275Y11948D02*
X23122Y11948D01*
X27404Y11948D02*
X35780Y11948D01*
X11275Y11998D02*
X23102Y11998D01*
X27410Y11998D02*
X35715Y11998D01*
X11275Y12047D02*
X23081Y12047D01*
X27414Y12047D02*
X35661Y12047D01*
X11275Y12097D02*
X23061Y12097D01*
X27414Y12097D02*
X35623Y12097D01*
X11275Y12147D02*
X23044Y12147D01*
X27414Y12147D02*
X35585Y12147D01*
X11275Y12196D02*
X23038Y12196D01*
X27414Y12196D02*
X35547Y12196D01*
X11275Y12246D02*
X23031Y12246D01*
X27414Y12246D02*
X35514Y12246D01*
X11275Y12295D02*
X23025Y12295D01*
X27414Y12295D02*
X35494Y12295D01*
X11275Y12345D02*
X23018Y12345D01*
X27414Y12345D02*
X35473Y12345D01*
X11275Y12394D02*
X23023Y12394D01*
X27414Y12394D02*
X35453Y12394D01*
X11275Y12444D02*
X23030Y12444D01*
X27414Y12444D02*
X35427Y12444D01*
X11275Y12493D02*
X23036Y12493D01*
X27414Y12493D02*
X35377Y12493D01*
X11275Y12543D02*
X23043Y12543D01*
X11275Y12592D02*
X23057Y12592D01*
X11275Y12642D02*
X23078Y12642D01*
X11275Y12691D02*
X23098Y12691D01*
X11275Y12741D02*
X23119Y12741D01*
X11275Y12790D02*
X23148Y12790D01*
X11275Y12840D02*
X23186Y12840D01*
X11275Y12889D02*
X23162Y12889D01*
X11275Y12939D02*
X23126Y12939D01*
X11275Y12989D02*
X23106Y12989D01*
X11275Y13038D02*
X23085Y13038D01*
X11275Y13088D02*
X23065Y13088D01*
X11275Y13137D02*
X23045Y13137D01*
X11275Y13187D02*
X23039Y13187D01*
X11275Y13236D02*
X23032Y13236D01*
X11275Y13286D02*
X23026Y13286D01*
X11275Y13335D02*
X23019Y13335D01*
X11275Y13385D02*
X23022Y13385D01*
X11275Y13434D02*
X23029Y13434D01*
X11275Y13484D02*
X23035Y13484D01*
X11275Y13533D02*
X23042Y13533D01*
X11275Y13583D02*
X23054Y13583D01*
X11275Y13632D02*
X23074Y13632D01*
X11275Y13682D02*
X23095Y13682D01*
X11275Y13731D02*
X23115Y13731D01*
X11275Y13781D02*
X23136Y13781D01*
X11275Y13831D02*
X23157Y13831D01*
X11275Y13880D02*
X23179Y13880D01*
X11275Y13930D02*
X23200Y13930D01*
X11275Y13979D02*
X23222Y13979D01*
X11275Y14029D02*
X23204Y14029D01*
X11275Y14078D02*
X23183Y14078D01*
X11275Y14128D02*
X23161Y14128D01*
X11275Y14177D02*
X23140Y14177D01*
X11275Y14227D02*
X23119Y14227D01*
X11275Y14276D02*
X23098Y14276D01*
X11275Y14326D02*
X23078Y14326D01*
X11275Y14375D02*
X23057Y14375D01*
X11275Y14425D02*
X23043Y14425D01*
X11275Y14474D02*
X23036Y14474D01*
X11275Y14524D02*
X23030Y14524D01*
X11275Y14573D02*
X23023Y14573D01*
X11275Y14623D02*
X23018Y14623D01*
X11275Y14673D02*
X23025Y14673D01*
X11275Y14722D02*
X23031Y14722D01*
X11275Y14772D02*
X23038Y14772D01*
X11275Y14821D02*
X23044Y14821D01*
X11275Y14871D02*
X23061Y14871D01*
X11275Y14920D02*
X23081Y14920D01*
X11275Y14970D02*
X23102Y14970D01*
X11275Y15019D02*
X23122Y15019D01*
X11275Y15069D02*
X23155Y15069D01*
X11275Y15118D02*
X23193Y15118D01*
X11275Y15168D02*
X23156Y15168D01*
X11275Y15217D02*
X23123Y15217D01*
X11275Y15267D02*
X23102Y15267D01*
X11275Y15316D02*
X23082Y15316D01*
X11275Y15366D02*
X23061Y15366D01*
X11275Y15415D02*
X23044Y15415D01*
X11275Y15465D02*
X23038Y15465D01*
X11275Y15515D02*
X23031Y15515D01*
X11275Y15564D02*
X23025Y15564D01*
X11275Y15614D02*
X23018Y15614D01*
X11275Y15663D02*
X23023Y15663D01*
X11275Y15713D02*
X23030Y15713D01*
X11275Y15762D02*
X23036Y15762D01*
X11275Y15812D02*
X23043Y15812D01*
X11275Y15861D02*
X23057Y15861D01*
X11275Y15911D02*
X23078Y15911D01*
X11275Y15960D02*
X23098Y15960D01*
X11275Y16010D02*
X23119Y16010D01*
X11275Y16059D02*
X23148Y16059D01*
X11275Y16109D02*
X23186Y16109D01*
X11275Y16158D02*
X23163Y16158D01*
X11275Y16208D02*
X23127Y16208D01*
X11275Y16257D02*
X23106Y16257D01*
X11275Y16307D02*
X23086Y16307D01*
X11275Y16357D02*
X23065Y16357D01*
X11275Y16406D02*
X23045Y16406D01*
X2514Y16456D02*
X23039Y16456D01*
X2514Y16505D02*
X23032Y16505D01*
X2514Y16555D02*
X23026Y16555D01*
X2514Y16604D02*
X23019Y16604D01*
X2514Y16654D02*
X23022Y16654D01*
X2514Y16703D02*
X23029Y16703D01*
X2514Y16753D02*
X23035Y16753D01*
X2514Y16802D02*
X23042Y16802D01*
X2514Y16852D02*
X23053Y16852D01*
X2514Y16901D02*
X23074Y16901D01*
X2514Y16951D02*
X23094Y16951D01*
X2514Y17000D02*
X23115Y17000D01*
X2514Y17050D02*
X23140Y17050D01*
X2514Y17100D02*
X23178Y17100D01*
X24796Y17100D02*
X27587Y17100D01*
X2514Y17149D02*
X23216Y17149D01*
X24733Y17149D02*
X27637Y17149D01*
X2514Y17199D02*
X23254Y17199D01*
X24668Y17199D02*
X27686Y17199D01*
X2514Y17248D02*
X23314Y17248D01*
X24564Y17248D02*
X27736Y17248D01*
X2514Y17298D02*
X23379Y17298D01*
X24357Y17298D02*
X27785Y17298D01*
X2514Y17347D02*
X23452Y17347D01*
X24248Y17347D02*
X27835Y17347D01*
X2514Y17397D02*
X23571Y17397D01*
X24129Y17397D02*
X27884Y17397D01*
X2514Y17446D02*
X23811Y17446D01*
X23889Y17446D02*
X27934Y17446D01*
X2514Y17496D02*
X27983Y17496D01*
X2514Y17545D02*
X28033Y17545D01*
X2514Y17595D02*
X28082Y17595D01*
X2514Y17644D02*
X28132Y17644D01*
X2514Y17694D02*
X28181Y17694D01*
X2514Y17743D02*
X28231Y17743D01*
X2514Y17793D02*
X28280Y17793D01*
X2514Y17842D02*
X28330Y17842D01*
X2514Y17892D02*
X28380Y17892D01*
X2514Y17942D02*
X28429Y17942D01*
X2514Y17991D02*
X28479Y17991D01*
X2514Y18041D02*
X28528Y18041D01*
X2514Y18090D02*
X28578Y18090D01*
X2514Y18140D02*
X28627Y18140D01*
X2514Y18189D02*
X28677Y18189D01*
X2514Y18239D02*
X28726Y18239D01*
X2514Y18288D02*
X28776Y18288D01*
X2514Y18338D02*
X28825Y18338D01*
X2514Y18387D02*
X28875Y18387D01*
X2514Y18437D02*
X28924Y18437D01*
X2514Y18486D02*
X28974Y18486D01*
X2514Y18536D02*
X29023Y18536D01*
X2514Y18585D02*
X29073Y18585D01*
X2514Y18635D02*
X29122Y18635D01*
X2514Y18684D02*
X29172Y18684D01*
X2514Y18734D02*
X29222Y18734D01*
X2514Y18784D02*
X29271Y18784D01*
X2514Y18833D02*
X29321Y18833D01*
X2514Y18883D02*
X29370Y18883D01*
X2514Y18932D02*
X29420Y18932D01*
X2514Y18982D02*
X29469Y18982D01*
X2514Y19031D02*
X29519Y19031D01*
X2514Y19081D02*
X29568Y19081D01*
X2514Y19130D02*
X29618Y19130D01*
X2514Y19180D02*
X29667Y19180D01*
X2514Y19229D02*
X29717Y19229D01*
X2514Y19279D02*
X29766Y19279D01*
X2514Y19328D02*
X29816Y19328D01*
X2514Y19378D02*
X29865Y19378D01*
X2514Y19427D02*
X29915Y19427D01*
X2514Y19477D02*
X29964Y19477D01*
X2514Y19526D02*
X30014Y19526D01*
X2514Y19576D02*
X30064Y19576D01*
X2514Y19626D02*
X30113Y19626D01*
X2514Y19675D02*
X30163Y19675D01*
X2514Y19725D02*
X30212Y19725D01*
X2514Y19774D02*
X30250Y19774D01*
X2514Y19824D02*
X30250Y19824D01*
X2514Y19873D02*
X30250Y19873D01*
X2514Y19923D02*
X30247Y19923D01*
X2514Y19972D02*
X30214Y19972D01*
X2514Y20022D02*
X30194Y20022D01*
X2514Y20071D02*
X30184Y20071D01*
X2514Y20121D02*
X30174Y20121D01*
X2514Y20170D02*
X30167Y20170D01*
X2514Y20220D02*
X30167Y20220D01*
X2514Y20269D02*
X30167Y20269D01*
X2514Y20319D02*
X30167Y20319D01*
X2514Y20368D02*
X30167Y20368D01*
X2514Y20418D02*
X30167Y20418D01*
X2514Y20468D02*
X30167Y20468D01*
X2514Y20517D02*
X30167Y20517D01*
X2514Y20567D02*
X30167Y20567D01*
X2514Y20616D02*
X30167Y20616D01*
X2514Y20666D02*
X30167Y20666D01*
X2514Y20715D02*
X30167Y20715D01*
X2514Y20765D02*
X30167Y20765D01*
X2514Y20814D02*
X30167Y20814D01*
X2514Y20864D02*
X30167Y20864D01*
X2514Y20913D02*
X30167Y20913D01*
X2514Y20963D02*
X30167Y20963D01*
X2514Y21012D02*
X30167Y21012D01*
X2514Y21062D02*
X30167Y21062D01*
X2514Y21111D02*
X30167Y21111D01*
X2514Y21161D02*
X30167Y21161D01*
X2514Y21210D02*
X30167Y21210D01*
X2514Y21260D02*
X30167Y21260D01*
X2514Y21310D02*
X30167Y21310D01*
X2514Y21359D02*
X30167Y21359D01*
X2514Y21409D02*
X30167Y21409D01*
X2514Y21458D02*
X30167Y21458D01*
X2514Y21508D02*
X30167Y21508D01*
X2514Y21557D02*
X30167Y21557D01*
X2514Y21607D02*
X30167Y21607D01*
X2514Y21656D02*
X30167Y21656D01*
X2514Y21706D02*
X30167Y21706D01*
X2514Y21755D02*
X30167Y21755D01*
X2514Y21805D02*
X30167Y21805D01*
X2514Y21854D02*
X30167Y21854D01*
X2514Y21904D02*
X30167Y21904D01*
X2514Y21953D02*
X30167Y21953D01*
X2514Y22003D02*
X30167Y22003D01*
X2514Y22053D02*
X30167Y22053D01*
X2514Y22102D02*
X30167Y22102D01*
X2514Y22152D02*
X30167Y22152D01*
X2514Y22201D02*
X30167Y22201D01*
X2514Y22251D02*
X30167Y22251D01*
X2514Y22300D02*
X30167Y22300D01*
X2514Y22350D02*
X30167Y22350D01*
X2514Y22399D02*
X30167Y22399D01*
X2514Y22449D02*
X30167Y22449D01*
X2514Y22498D02*
X30167Y22498D01*
X2514Y22548D02*
X30167Y22548D01*
X2514Y22597D02*
X30167Y22597D01*
X2514Y22647D02*
X30167Y22647D01*
X2514Y22696D02*
X30167Y22696D01*
X2514Y22746D02*
X30167Y22746D01*
X2514Y22795D02*
X30167Y22795D01*
X2514Y22845D02*
X30167Y22845D01*
X2514Y22895D02*
X30170Y22895D01*
X2514Y22944D02*
X30180Y22944D01*
X2514Y22994D02*
X30190Y22994D01*
X2514Y23043D02*
X30201Y23043D01*
X2514Y23093D02*
X30234Y23093D01*
X2514Y23142D02*
X30250Y23142D01*
X2514Y23192D02*
X30308Y23192D01*
X2514Y23241D02*
X30382Y23241D01*
X2514Y23291D02*
X30510Y23291D01*
X2514Y23340D02*
X34511Y23340D01*
X2514Y23390D02*
X34511Y23390D01*
X2514Y23439D02*
X34511Y23439D01*
X2514Y23489D02*
X34511Y23489D01*
X2514Y23538D02*
X34511Y23538D01*
X2514Y23588D02*
X34511Y23588D01*
X2514Y23637D02*
X34511Y23637D01*
X2514Y23687D02*
X34511Y23687D01*
X2514Y23737D02*
X34511Y23737D01*
X2514Y23786D02*
X34511Y23786D01*
X2514Y23836D02*
X34511Y23836D01*
X2514Y23885D02*
X34511Y23885D01*
X2514Y23935D02*
X34511Y23935D01*
X2514Y23984D02*
X34511Y23984D01*
X2514Y24034D02*
X34511Y24034D01*
X2514Y24083D02*
X34511Y24083D01*
X2514Y24133D02*
X34511Y24133D01*
X2514Y24182D02*
X34511Y24182D01*
X2514Y24232D02*
X34511Y24232D01*
X2514Y24281D02*
X34511Y24281D01*
X2514Y24331D02*
X34511Y24331D01*
X2514Y24380D02*
X34511Y24380D01*
X2514Y24430D02*
X34511Y24430D01*
X2514Y24479D02*
X34511Y24479D01*
X2514Y24529D02*
X34511Y24529D01*
X2514Y24579D02*
X17686Y24579D01*
X19964Y24579D02*
X34511Y24579D01*
X2514Y24628D02*
X17675Y24628D01*
X19975Y24628D02*
X34511Y24628D01*
X2514Y24678D02*
X17675Y24678D01*
X19975Y24678D02*
X34511Y24678D01*
X2514Y24727D02*
X17675Y24727D01*
X19975Y24727D02*
X34511Y24727D01*
X2514Y24777D02*
X17675Y24777D01*
X19975Y24777D02*
X34511Y24777D01*
X2514Y24826D02*
X17675Y24826D01*
X19975Y24826D02*
X34511Y24826D01*
X2514Y24876D02*
X17675Y24876D01*
X19975Y24876D02*
X34511Y24876D01*
X2514Y24925D02*
X17675Y24925D01*
X19975Y24925D02*
X34511Y24925D01*
X2514Y24975D02*
X17675Y24975D01*
X19975Y24975D02*
X34511Y24975D01*
X2514Y25024D02*
X17675Y25024D01*
X19975Y25024D02*
X34511Y25024D01*
X2514Y25074D02*
X17675Y25074D01*
X19975Y25074D02*
X34511Y25074D01*
X2514Y25123D02*
X17675Y25123D01*
X19975Y25123D02*
X34511Y25123D01*
X2514Y25173D02*
X17675Y25173D01*
X19975Y25173D02*
X34511Y25173D01*
X2514Y25222D02*
X17675Y25222D01*
X19975Y25222D02*
X34511Y25222D01*
X2514Y25272D02*
X17675Y25272D01*
X19975Y25272D02*
X34511Y25272D01*
X2514Y25321D02*
X17675Y25321D01*
X19975Y25321D02*
X34511Y25321D01*
X2514Y25371D02*
X17675Y25371D01*
X19975Y25371D02*
X34511Y25371D01*
X2514Y25421D02*
X17675Y25421D01*
X19975Y25421D02*
X34511Y25421D01*
X2514Y25470D02*
X17675Y25470D01*
X19975Y25470D02*
X34511Y25470D01*
X2514Y25520D02*
X17675Y25520D01*
X19975Y25520D02*
X34511Y25520D01*
X2514Y25569D02*
X17675Y25569D01*
X19975Y25569D02*
X34511Y25569D01*
X2514Y25619D02*
X17675Y25619D01*
X19975Y25619D02*
X34511Y25619D01*
X2514Y25668D02*
X17675Y25668D01*
X19975Y25668D02*
X34511Y25668D01*
X2514Y25718D02*
X17675Y25718D01*
X19975Y25718D02*
X34511Y25718D01*
X2514Y25767D02*
X17675Y25767D01*
X19975Y25767D02*
X34511Y25767D01*
X2514Y25817D02*
X17675Y25817D01*
X19975Y25817D02*
X34511Y25817D01*
X2514Y25866D02*
X17675Y25866D01*
X19975Y25866D02*
X34511Y25866D01*
X2514Y25916D02*
X17675Y25916D01*
X19975Y25916D02*
X34511Y25916D01*
X2514Y25965D02*
X17675Y25965D01*
X19975Y25965D02*
X34511Y25965D01*
X2514Y26015D02*
X17675Y26015D01*
X19975Y26015D02*
X34511Y26015D01*
X2514Y26064D02*
X17675Y26064D01*
X19975Y26064D02*
X34511Y26064D01*
X2514Y26114D02*
X17675Y26114D01*
X19975Y26114D02*
X34511Y26114D01*
X2514Y26163D02*
X17675Y26163D01*
X19975Y26163D02*
X34511Y26163D01*
X2514Y26213D02*
X17675Y26213D01*
X19975Y26213D02*
X34511Y26213D01*
X2514Y26263D02*
X17675Y26263D01*
X19975Y26263D02*
X34511Y26263D01*
X2514Y26312D02*
X17675Y26312D01*
X19975Y26312D02*
X34511Y26312D01*
X2514Y26362D02*
X17675Y26362D01*
X19975Y26362D02*
X34511Y26362D01*
X2514Y26411D02*
X17675Y26411D01*
X19975Y26411D02*
X34511Y26411D01*
X2514Y26461D02*
X17675Y26461D01*
X19975Y26461D02*
X34511Y26461D01*
X2514Y26510D02*
X17675Y26510D01*
X19975Y26510D02*
X34511Y26510D01*
X2514Y26560D02*
X17675Y26560D01*
X19975Y26560D02*
X34511Y26560D01*
X2514Y26609D02*
X17675Y26609D01*
X19975Y26609D02*
X34511Y26609D01*
X2514Y26659D02*
X17675Y26659D01*
X19975Y26659D02*
X34511Y26659D01*
X2514Y26708D02*
X17675Y26708D01*
X19975Y26708D02*
X34511Y26708D01*
X2514Y26758D02*
X17675Y26758D01*
X19975Y26758D02*
X34511Y26758D01*
X2514Y26807D02*
X17675Y26807D01*
X19975Y26807D02*
X34511Y26807D01*
X2514Y26857D02*
X17675Y26857D01*
X19975Y26857D02*
X34511Y26857D01*
X2514Y26906D02*
X34511Y26906D01*
X2514Y26956D02*
X34511Y26956D01*
X2514Y27006D02*
X34511Y27006D01*
X2514Y27055D02*
X34511Y27055D01*
X2514Y27105D02*
X34511Y27105D01*
X2514Y27154D02*
X34511Y27154D01*
X2514Y27204D02*
X34511Y27204D01*
X2514Y27253D02*
X34511Y27253D01*
X2514Y27303D02*
X34511Y27303D01*
X2514Y27352D02*
X34511Y27352D01*
X2514Y27402D02*
X34503Y27402D01*
X2514Y27451D02*
X34458Y27451D01*
X2514Y27501D02*
X34391Y27501D01*
X2514Y27550D02*
X34292Y27550D01*
X2514Y27600D02*
X34194Y27600D01*
X2514Y27649D02*
X33747Y27649D01*
X33853Y27649D02*
X34095Y27649D01*
X2514Y27699D02*
X33322Y27699D01*
X2514Y27748D02*
X31491Y27748D01*
X2514Y27798D02*
X31491Y27798D01*
X2514Y27848D02*
X31491Y27848D01*
X2514Y27897D02*
X31491Y27897D01*
X2514Y27947D02*
X31491Y27947D01*
X2514Y27996D02*
X31491Y27996D01*
X2514Y28046D02*
X31491Y28046D01*
X2514Y28095D02*
X31491Y28095D01*
X2514Y28145D02*
X31491Y28145D01*
X2514Y28194D02*
X31491Y28194D01*
X2514Y28244D02*
X31491Y28244D01*
X2514Y28293D02*
X31491Y28293D01*
X2514Y28343D02*
X31491Y28343D01*
X2514Y28392D02*
X31491Y28392D01*
X2514Y28442D02*
X31491Y28442D01*
X2514Y28491D02*
X31491Y28491D01*
X2514Y28541D02*
X31491Y28541D01*
X2514Y28590D02*
X31491Y28590D01*
X2514Y28640D02*
X31491Y28640D01*
X2514Y28690D02*
X31491Y28690D01*
X2514Y28739D02*
X31491Y28739D01*
X2514Y28789D02*
X31491Y28789D01*
X2514Y28838D02*
X31491Y28838D01*
X2514Y28888D02*
X31491Y28888D01*
X2514Y28937D02*
X31490Y28937D01*
X2514Y28987D02*
X31434Y28987D01*
X2514Y29036D02*
X31377Y29036D01*
X2514Y29086D02*
X31321Y29086D01*
X2514Y29135D02*
X31192Y29135D01*
X2514Y29185D02*
X30967Y29185D01*
X2514Y29234D02*
X30847Y29234D01*
X2514Y29284D02*
X30763Y29284D01*
X2514Y29333D02*
X30698Y29333D01*
X2514Y29383D02*
X30634Y29383D01*
X2514Y29432D02*
X30583Y29432D01*
X2514Y29482D02*
X30545Y29482D01*
X2514Y29532D02*
X30507Y29532D01*
X2514Y29581D02*
X30469Y29581D01*
X2514Y29631D02*
X30439Y29631D01*
X2514Y29680D02*
X30419Y29680D01*
X2514Y29730D02*
X30398Y29730D01*
X2514Y29779D02*
X30378Y29779D01*
X2514Y29829D02*
X30357Y29829D01*
X2514Y29878D02*
X30347Y29878D01*
X2514Y29928D02*
X30341Y29928D01*
X2514Y29977D02*
X30334Y29977D01*
X2514Y30027D02*
X30328Y30027D01*
X2514Y30076D02*
X30321Y30076D01*
X2514Y30126D02*
X30324Y30126D01*
X2514Y30175D02*
X30330Y30175D01*
X2514Y30225D02*
X30337Y30225D01*
X2514Y30274D02*
X30343Y30274D01*
X2514Y30324D02*
X30350Y30324D01*
X2514Y30374D02*
X30365Y30374D01*
X2514Y30423D02*
X30386Y30423D01*
X2514Y30473D02*
X30406Y30473D01*
X2514Y30522D02*
X30427Y30522D01*
X2514Y30572D02*
X30448Y30572D01*
X2514Y30621D02*
X30484Y30621D01*
X2514Y30671D02*
X30522Y30671D01*
X2514Y30720D02*
X30560Y30720D01*
X2514Y30770D02*
X30598Y30770D01*
X2514Y30819D02*
X30659Y30819D01*
X34017Y30819D02*
X34139Y30819D01*
X2514Y30869D02*
X30724Y30869D01*
X33952Y30869D02*
X34262Y30869D01*
X2514Y30918D02*
X30788Y30918D01*
X33888Y30918D02*
X34386Y30918D01*
X2514Y30968D02*
X30895Y30968D01*
X33781Y30968D02*
X34509Y30968D01*
X2514Y31017D02*
X31014Y31017D01*
X33662Y31017D02*
X34511Y31017D01*
X2514Y31067D02*
X31287Y31067D01*
X33389Y31067D02*
X34511Y31067D01*
X2514Y31116D02*
X31343Y31116D01*
X33333Y31116D02*
X34511Y31116D01*
X2514Y31166D02*
X31400Y31166D01*
X33276Y31166D02*
X34511Y31166D01*
X2514Y31216D02*
X31456Y31216D01*
X33220Y31216D02*
X34511Y31216D01*
X2514Y31265D02*
X31491Y31265D01*
X33213Y31265D02*
X34511Y31265D01*
X2514Y31315D02*
X31491Y31315D01*
X33213Y31315D02*
X34511Y31315D01*
X2514Y31364D02*
X31491Y31364D01*
X33213Y31364D02*
X34511Y31364D01*
X2514Y31414D02*
X31491Y31414D01*
X33213Y31414D02*
X34511Y31414D01*
X2514Y31463D02*
X31491Y31463D01*
X33213Y31463D02*
X34511Y31463D01*
X2514Y31513D02*
X31491Y31513D01*
X33213Y31513D02*
X34511Y31513D01*
X2514Y31562D02*
X31491Y31562D01*
X33213Y31562D02*
X34511Y31562D01*
X2514Y31612D02*
X31491Y31612D01*
X33213Y31612D02*
X34511Y31612D01*
X2514Y31661D02*
X31491Y31661D01*
X33213Y31661D02*
X34511Y31661D01*
X2514Y31711D02*
X31491Y31711D01*
X33213Y31711D02*
X34511Y31711D01*
X2514Y31760D02*
X31491Y31760D01*
X33213Y31760D02*
X34511Y31760D01*
X2514Y31810D02*
X32074Y31810D01*
X32631Y31810D02*
X34511Y31810D01*
X2514Y31859D02*
X32318Y31859D01*
X32387Y31859D02*
X34511Y31859D01*
X2514Y31909D02*
X34511Y31909D01*
X2514Y31959D02*
X34511Y31959D01*
X2514Y32008D02*
X34511Y32008D01*
X2514Y32058D02*
X34511Y32058D01*
X2514Y32107D02*
X34511Y32107D01*
X2514Y32157D02*
X34511Y32157D01*
X2514Y32206D02*
X34511Y32206D01*
X2514Y32256D02*
X34511Y32256D01*
X2514Y32305D02*
X34511Y32305D01*
X2514Y32355D02*
X34511Y32355D01*
X2514Y32404D02*
X34511Y32404D01*
X2514Y32454D02*
X34511Y32454D01*
X2514Y32503D02*
X34511Y32503D01*
X2514Y32553D02*
X34511Y32553D01*
X2514Y32602D02*
X34511Y32602D01*
X2514Y32652D02*
X34518Y32652D01*
X2514Y32701D02*
X34524Y32701D01*
X2514Y32751D02*
X34531Y32751D01*
X2514Y32801D02*
X34537Y32801D01*
X2514Y32850D02*
X34553Y32850D01*
X2514Y32900D02*
X34573Y32900D01*
X2514Y32949D02*
X34594Y32949D01*
X2514Y32999D02*
X34614Y32999D01*
X2514Y33048D02*
X34645Y33048D01*
X2514Y33098D02*
X34683Y33098D01*
X2514Y33147D02*
X34721Y33147D01*
X2514Y33197D02*
X34759Y33197D01*
X2514Y33246D02*
X34809Y33246D01*
X2514Y33296D02*
X34858Y33296D01*
X2514Y33345D02*
X34908Y33345D01*
X2514Y33395D02*
X34958Y33395D01*
X2514Y33444D02*
X35007Y33444D01*
X2514Y33494D02*
X35057Y33494D01*
X2514Y33543D02*
X35106Y33543D01*
X2514Y33593D02*
X35156Y33593D01*
X2514Y33643D02*
X35205Y33643D01*
X2514Y33692D02*
X35255Y33692D01*
X2514Y33742D02*
X35275Y33742D01*
X2514Y33791D02*
X35275Y33791D01*
X2514Y33841D02*
X35275Y33841D01*
X2514Y33890D02*
X35275Y33890D01*
X2514Y33940D02*
X35275Y33940D01*
X2514Y33989D02*
X35275Y33989D01*
X2514Y34039D02*
X35275Y34039D01*
X2514Y34088D02*
X35275Y34088D01*
X2514Y34138D02*
X35275Y34138D01*
X2514Y34187D02*
X35275Y34187D01*
X2514Y34237D02*
X35275Y34237D01*
X2514Y34286D02*
X35275Y34286D01*
X2514Y34336D02*
X35275Y34336D01*
X2514Y34385D02*
X35275Y34385D01*
X2514Y34435D02*
X35275Y34435D01*
X2514Y34485D02*
X35275Y34485D01*
X2514Y34534D02*
X35275Y34534D01*
X2514Y34584D02*
X35275Y34584D01*
X2514Y34633D02*
X35275Y34633D01*
X2514Y34683D02*
X35275Y34683D01*
X2514Y34732D02*
X25999Y34732D01*
X26351Y34732D02*
X35275Y34732D01*
X2514Y34782D02*
X25853Y34782D01*
X26497Y34782D02*
X35275Y34782D01*
X2514Y34831D02*
X25745Y34831D01*
X26605Y34831D02*
X35275Y34831D01*
X2514Y34881D02*
X25680Y34881D01*
X26670Y34881D02*
X35275Y34881D01*
X2514Y34930D02*
X25616Y34930D01*
X26770Y34930D02*
X35275Y34930D01*
X2514Y34980D02*
X25566Y34980D01*
X26854Y34980D02*
X35275Y34980D01*
X2514Y35029D02*
X25528Y35029D01*
X26919Y35029D02*
X35275Y35029D01*
X2514Y35079D02*
X25490Y35079D01*
X26976Y35079D02*
X35275Y35079D01*
X2514Y35128D02*
X25453Y35128D01*
X27026Y35128D02*
X35275Y35128D01*
X2514Y35178D02*
X25432Y35178D01*
X27075Y35178D02*
X35275Y35178D01*
X2514Y35227D02*
X25412Y35227D01*
X27125Y35227D02*
X35275Y35227D01*
X2514Y35277D02*
X25391Y35277D01*
X27174Y35277D02*
X35275Y35277D01*
X2514Y35327D02*
X25371Y35327D01*
X2514Y35376D02*
X25364Y35376D01*
X2514Y35426D02*
X25358Y35426D01*
X2514Y35475D02*
X25351Y35475D01*
X2514Y35525D02*
X25345Y35525D01*
X2514Y35574D02*
X25347Y35574D01*
X2514Y35624D02*
X25353Y35624D01*
X2514Y35673D02*
X25360Y35673D01*
X2514Y35723D02*
X25366Y35723D01*
X2514Y35772D02*
X25377Y35772D01*
X2514Y35822D02*
X25398Y35822D01*
X2514Y35871D02*
X25418Y35871D01*
X2514Y35921D02*
X25439Y35921D01*
X2514Y35970D02*
X25464Y35970D01*
X2514Y36020D02*
X25502Y36020D01*
X2514Y36069D02*
X25497Y36069D01*
X2514Y36119D02*
X25459Y36119D01*
X2514Y36169D02*
X25436Y36169D01*
X2514Y36218D02*
X25416Y36218D01*
X2514Y36268D02*
X25395Y36268D01*
X2514Y36317D02*
X25375Y36317D01*
X2514Y36367D02*
X25366Y36367D01*
X2514Y36416D02*
X25359Y36416D01*
X2514Y36466D02*
X25352Y36466D01*
X2514Y36515D02*
X25346Y36515D01*
X2514Y36565D02*
X25346Y36565D01*
X2514Y36614D02*
X25352Y36614D01*
X2514Y36664D02*
X25359Y36664D01*
X2514Y36713D02*
X25365Y36713D01*
X2514Y36763D02*
X25373Y36763D01*
X2514Y36812D02*
X25394Y36812D01*
X2514Y36862D02*
X25414Y36862D01*
X2514Y36912D02*
X25435Y36912D01*
X2514Y36961D02*
X25456Y36961D01*
X2514Y37011D02*
X25494Y37011D01*
X2514Y37060D02*
X25504Y37060D01*
X2514Y37110D02*
X25466Y37110D01*
X2514Y37159D02*
X25440Y37159D01*
X2514Y37209D02*
X25419Y37209D01*
X2514Y37258D02*
X25399Y37258D01*
X2514Y37308D02*
X25378Y37308D01*
X2514Y37357D02*
X25367Y37357D01*
X2514Y37407D02*
X25360Y37407D01*
X2514Y37456D02*
X25354Y37456D01*
X2514Y37506D02*
X25347Y37506D01*
X2514Y37555D02*
X25344Y37555D01*
X2514Y37605D02*
X25351Y37605D01*
X2514Y37654D02*
X25357Y37654D01*
X2514Y37704D02*
X25364Y37704D01*
X2514Y37754D02*
X25370Y37754D01*
X2514Y37803D02*
X25390Y37803D01*
X2514Y37853D02*
X25410Y37853D01*
X2514Y37902D02*
X25431Y37902D01*
X2514Y37952D02*
X25451Y37952D01*
X2514Y38001D02*
X25487Y38001D01*
X2514Y38051D02*
X25525Y38051D01*
X2514Y38100D02*
X25563Y38100D01*
X2514Y38150D02*
X25579Y38150D01*
X2514Y38199D02*
X25579Y38199D01*
X2514Y38249D02*
X25566Y38249D01*
X2514Y38298D02*
X25528Y38298D01*
X2514Y38348D02*
X25490Y38348D01*
X2514Y38397D02*
X25453Y38397D01*
X2514Y38447D02*
X25433Y38447D01*
X2514Y38496D02*
X25412Y38496D01*
X2514Y38546D02*
X25390Y38546D01*
X2514Y38596D02*
X25337Y38596D01*
X2514Y38645D02*
X25255Y38645D01*
X2514Y38695D02*
X24345Y38695D01*
X24605Y38695D02*
X25119Y38695D01*
X2514Y38744D02*
X24143Y38744D01*
X24807Y38744D02*
X24983Y38744D01*
X2514Y38794D02*
X24024Y38794D01*
X2514Y38843D02*
X23944Y38843D01*
X2514Y38893D02*
X23879Y38893D01*
X2514Y38942D02*
X23815Y38942D01*
X2514Y38992D02*
X23767Y38992D01*
X2514Y39041D02*
X23729Y39041D01*
X2514Y39091D02*
X23691Y39091D01*
X2514Y39140D02*
X23653Y39140D01*
X2514Y39190D02*
X23624Y39190D01*
X2514Y39239D02*
X19750Y39239D01*
X23100Y39239D02*
X23604Y39239D01*
X2514Y39289D02*
X19750Y39289D01*
X23100Y39289D02*
X23583Y39289D01*
X2514Y39338D02*
X19750Y39338D01*
X23323Y39338D02*
X23563Y39338D01*
X2514Y39388D02*
X19750Y39388D01*
X2514Y39438D02*
X19750Y39438D01*
X2514Y39487D02*
X19750Y39487D01*
X2514Y39537D02*
X19750Y39537D01*
X2514Y39586D02*
X19750Y39586D01*
X2514Y39636D02*
X19750Y39636D01*
X2514Y39685D02*
X19750Y39685D01*
X2514Y39735D02*
X19750Y39735D01*
X2514Y39784D02*
X19750Y39784D01*
X2514Y39834D02*
X19750Y39834D01*
X2514Y39883D02*
X19750Y39883D01*
X2514Y39933D02*
X19750Y39933D01*
X2514Y39982D02*
X19750Y39982D01*
X2514Y40032D02*
X19750Y40032D01*
X2514Y40081D02*
X19750Y40081D01*
X2514Y40131D02*
X19750Y40131D01*
X2514Y40180D02*
X19750Y40180D01*
X2514Y40230D02*
X19750Y40230D01*
X2514Y40280D02*
X19750Y40280D01*
X2514Y40329D02*
X19750Y40329D01*
X2514Y40379D02*
X19750Y40379D01*
X2514Y40428D02*
X19750Y40428D01*
X2514Y40478D02*
X19750Y40478D01*
X2514Y40527D02*
X19750Y40527D01*
X2514Y40577D02*
X19750Y40577D01*
X2514Y40626D02*
X19750Y40626D01*
X2514Y40676D02*
X19750Y40676D01*
X2514Y40725D02*
X19750Y40725D01*
X2514Y40775D02*
X19750Y40775D01*
X2514Y40824D02*
X19750Y40824D01*
X2514Y40874D02*
X19750Y40874D01*
X2514Y40923D02*
X19750Y40923D01*
X2514Y40973D02*
X19750Y40973D01*
X2514Y41022D02*
X19750Y41022D01*
X2514Y41072D02*
X19750Y41072D01*
X2514Y41122D02*
X19750Y41122D01*
X27129Y41122D02*
X29460Y41122D01*
X2514Y41171D02*
X19750Y41171D01*
X27079Y41171D02*
X29460Y41171D01*
X2514Y41221D02*
X19750Y41221D01*
X27030Y41221D02*
X29460Y41221D01*
X2514Y41270D02*
X19750Y41270D01*
X26980Y41270D02*
X29460Y41270D01*
X2514Y41320D02*
X19750Y41320D01*
X26924Y41320D02*
X29460Y41320D01*
X2514Y41369D02*
X19750Y41369D01*
X26859Y41369D02*
X29460Y41369D01*
X2514Y41419D02*
X19750Y41419D01*
X26779Y41419D02*
X29460Y41419D01*
X2514Y41468D02*
X19750Y41468D01*
X26675Y41468D02*
X29460Y41468D01*
X2514Y41518D02*
X19750Y41518D01*
X26610Y41518D02*
X29460Y41518D01*
X2514Y41567D02*
X19750Y41567D01*
X26507Y41567D02*
X29460Y41567D01*
X2514Y41617D02*
X19750Y41617D01*
X25804Y41617D02*
X25968Y41617D01*
X26382Y41617D02*
X29460Y41617D01*
X2514Y41666D02*
X19750Y41666D01*
X25596Y41666D02*
X29460Y41666D01*
X2514Y41716D02*
X19750Y41716D01*
X25516Y41716D02*
X29460Y41716D01*
X2514Y41765D02*
X19750Y41765D01*
X23249Y41765D02*
X23568Y41765D01*
X25444Y41765D02*
X29460Y41765D01*
X2514Y41815D02*
X19750Y41815D01*
X23100Y41815D02*
X23588Y41815D01*
X25371Y41815D02*
X29460Y41815D01*
X2514Y41865D02*
X19757Y41865D01*
X23093Y41865D02*
X23609Y41865D01*
X25341Y41865D02*
X29460Y41865D01*
X2514Y41914D02*
X23629Y41914D01*
X25321Y41914D02*
X29460Y41914D01*
X2514Y41964D02*
X23661Y41964D01*
X25289Y41964D02*
X29460Y41964D01*
X2514Y42013D02*
X23699Y42013D01*
X25251Y42013D02*
X29460Y42013D01*
X2514Y42063D02*
X23737Y42063D01*
X25213Y42063D02*
X29460Y42063D01*
X2514Y42112D02*
X23775Y42112D01*
X25175Y42112D02*
X29460Y42112D01*
X2514Y42162D02*
X23830Y42162D01*
X25120Y42162D02*
X29460Y42162D01*
X2514Y42211D02*
X23894Y42211D01*
X25056Y42211D02*
X29460Y42211D01*
X2514Y42261D02*
X23959Y42261D01*
X24991Y42261D02*
X29460Y42261D01*
X2514Y42310D02*
X24051Y42310D01*
X24899Y42310D02*
X29460Y42310D01*
X2514Y42360D02*
X24171Y42360D01*
X24779Y42360D02*
X29460Y42360D01*
X2514Y42409D02*
X24433Y42409D01*
X24517Y42409D02*
X29460Y42409D01*
X2514Y42459D02*
X29460Y42459D01*
X2514Y42508D02*
X29460Y42508D01*
X2514Y42558D02*
X29460Y42558D01*
X2514Y42607D02*
X29460Y42607D01*
X2514Y42657D02*
X29460Y42657D01*
X2514Y42707D02*
X29460Y42707D01*
X2514Y42756D02*
X29460Y42756D01*
X2514Y42806D02*
X29460Y42806D01*
X2514Y42855D02*
X29460Y42855D01*
X2514Y42905D02*
X29460Y42905D01*
X2514Y42954D02*
X29460Y42954D01*
X2514Y43004D02*
X29460Y43004D01*
X2514Y43053D02*
X29460Y43053D01*
X2514Y43103D02*
X29460Y43103D01*
X2514Y43152D02*
X29460Y43152D01*
X2514Y43202D02*
X29460Y43202D01*
X2514Y43251D02*
X29460Y43251D01*
X2514Y43301D02*
X29460Y43301D01*
X2514Y43350D02*
X29460Y43350D01*
X2514Y43400D02*
X29460Y43400D01*
X2514Y43449D02*
X29460Y43449D01*
X2514Y43499D02*
X29460Y43499D01*
X2514Y43549D02*
X29460Y43549D01*
X2514Y43598D02*
X29460Y43598D01*
X2514Y43648D02*
X29460Y43648D01*
X2514Y43697D02*
X29460Y43697D01*
X2514Y43747D02*
X29460Y43747D01*
X2514Y43796D02*
X29460Y43796D01*
X2514Y43846D02*
X29460Y43846D01*
X2514Y43895D02*
X29460Y43895D01*
X2514Y43945D02*
X29460Y43945D01*
X2514Y43994D02*
X29460Y43994D01*
X2514Y44044D02*
X29460Y44044D01*
X2514Y44093D02*
X29460Y44093D01*
X2514Y44143D02*
X29460Y44143D01*
X2514Y44192D02*
X29460Y44192D01*
X2514Y44242D02*
X29460Y44242D01*
X2514Y44291D02*
X29460Y44291D01*
X2514Y44341D02*
X29460Y44341D01*
X2514Y44391D02*
X29460Y44391D01*
X2514Y44440D02*
X29460Y44440D01*
X2514Y44490D02*
X29460Y44490D01*
X2514Y44539D02*
X29460Y44539D01*
X2514Y44589D02*
X29460Y44589D01*
X2514Y44638D02*
X29460Y44638D01*
X2514Y44688D02*
X29460Y44688D01*
X2514Y44737D02*
X29460Y44737D01*
X2514Y44787D02*
X29460Y44787D01*
X2514Y44836D02*
X29460Y44836D01*
X2514Y44886D02*
X29460Y44886D01*
X2514Y44935D02*
X29460Y44935D01*
X2514Y44985D02*
X29460Y44985D01*
X2514Y45034D02*
X29460Y45034D01*
X2514Y45084D02*
X29460Y45084D01*
X2514Y45133D02*
X29460Y45133D01*
X2514Y45183D02*
X29460Y45183D01*
X2514Y45233D02*
X29460Y45233D01*
X2514Y45282D02*
X29460Y45282D01*
X2514Y45332D02*
X29460Y45332D01*
X2514Y45381D02*
X29460Y45381D01*
X2514Y45431D02*
X29460Y45431D01*
X2514Y45480D02*
X29460Y45480D01*
X2514Y45530D02*
X29460Y45530D01*
X2514Y45579D02*
X29460Y45579D01*
X2514Y45629D02*
X29460Y45629D01*
X2514Y45678D02*
X29460Y45678D01*
X2514Y45728D02*
X29460Y45728D01*
X2514Y45777D02*
X29460Y45777D01*
X2514Y45827D02*
X29460Y45827D01*
X2514Y45876D02*
X29460Y45876D01*
X2514Y45926D02*
X29460Y45926D01*
X2514Y45975D02*
X29442Y45975D01*
X2514Y46025D02*
X29438Y46025D01*
X2514Y46075D02*
X29438Y46075D01*
X2514Y46124D02*
X29438Y46124D01*
X2514Y46174D02*
X29438Y46174D01*
X2514Y46223D02*
X29438Y46223D01*
X2514Y46273D02*
X29438Y46273D01*
X2514Y46322D02*
X29438Y46322D01*
X2514Y46372D02*
X29438Y46372D01*
X2514Y46421D02*
X29438Y46421D01*
X2514Y46471D02*
X29438Y46471D01*
X2514Y46520D02*
X29438Y46520D01*
X2514Y46570D02*
X29438Y46570D01*
X2514Y46619D02*
X29438Y46619D01*
X2514Y46669D02*
X29438Y46669D01*
X2514Y46718D02*
X29438Y46718D01*
X2514Y46768D02*
X29438Y46768D01*
X2514Y46818D02*
X29438Y46818D01*
X2514Y46867D02*
X29438Y46867D01*
X2514Y46917D02*
X29438Y46917D01*
X2514Y46966D02*
X29438Y46966D01*
X2514Y47016D02*
X29438Y47016D01*
X2514Y47065D02*
X29438Y47065D01*
X2514Y47115D02*
X29438Y47115D01*
X2514Y47164D02*
X29438Y47164D01*
X2514Y47214D02*
X29438Y47214D01*
X2514Y47263D02*
X29438Y47263D01*
X2514Y47313D02*
X29438Y47313D01*
X2514Y47362D02*
X29438Y47362D01*
X2514Y47412D02*
X29438Y47412D01*
X2514Y47461D02*
X29438Y47461D01*
X2514Y47511D02*
X29438Y47511D01*
X2514Y47560D02*
X29438Y47560D01*
X2514Y47610D02*
X12693Y47610D01*
X29105Y47610D02*
X29438Y47610D01*
X2514Y47660D02*
X12549Y47660D01*
X29291Y47660D02*
X29438Y47660D01*
X2514Y47709D02*
X12442Y47709D01*
X2514Y47759D02*
X12377Y47759D01*
X2514Y47808D02*
X12313Y47808D01*
X2514Y47858D02*
X12256Y47858D01*
X2514Y47907D02*
X12207Y47907D01*
X2514Y47957D02*
X12157Y47957D01*
X2514Y48006D02*
X12108Y48006D01*
X2514Y48056D02*
X12058Y48056D01*
X2514Y48105D02*
X12009Y48105D01*
X2514Y48155D02*
X11959Y48155D01*
X2514Y48204D02*
X11909Y48204D01*
X2514Y48254D02*
X11860Y48254D01*
X2514Y48303D02*
X11810Y48303D01*
X2514Y48353D02*
X11761Y48353D01*
X2514Y48402D02*
X11711Y48402D01*
X2514Y48452D02*
X11662Y48452D01*
X2514Y48502D02*
X11612Y48502D01*
X2514Y48551D02*
X11563Y48551D01*
X2514Y48601D02*
X11513Y48601D01*
X2514Y48650D02*
X11464Y48650D01*
X2514Y48700D02*
X11414Y48700D01*
X2514Y48749D02*
X11365Y48749D01*
X2514Y48799D02*
X11315Y48799D01*
X2514Y48848D02*
X11266Y48848D01*
X2514Y48898D02*
X11216Y48898D01*
X2514Y48947D02*
X11167Y48947D01*
X2514Y48997D02*
X11117Y48997D01*
X2514Y49046D02*
X11067Y49046D01*
X2514Y49096D02*
X11018Y49096D01*
X2514Y49145D02*
X10968Y49145D01*
X2514Y49195D02*
X10919Y49195D01*
X2514Y49244D02*
X10869Y49244D01*
X2514Y49294D02*
X10820Y49294D01*
X2514Y49344D02*
X10770Y49344D01*
X2514Y49393D02*
X10721Y49393D01*
X2514Y49443D02*
X10671Y49443D01*
X2514Y49492D02*
X10622Y49492D01*
X2514Y49542D02*
X10572Y49542D01*
X2514Y49591D02*
X10523Y49591D01*
X2552Y49641D02*
X10473Y49641D01*
X2601Y49690D02*
X10424Y49690D01*
X2651Y49740D02*
X10374Y49740D01*
X2700Y49789D02*
X10325Y49789D01*
X2750Y49839D02*
X10275Y49839D01*
X2800Y49888D02*
X10225Y49888D01*
X2849Y49938D02*
X10176Y49938D01*
X2899Y49987D02*
X10126Y49987D01*
X2948Y50037D02*
X10077Y50037D01*
X2998Y50086D02*
X10027Y50086D01*
X3047Y50136D02*
X9978Y50136D01*
X3097Y50186D02*
X9928Y50186D01*
X3146Y50235D02*
X9879Y50235D01*
X3196Y50285D02*
X9829Y50285D01*
X3245Y50334D02*
X9780Y50334D01*
X3295Y50384D02*
X9730Y50384D01*
X3344Y50433D02*
X9681Y50433D01*
X3394Y50483D02*
X9631Y50483D01*
X3443Y50532D02*
X9582Y50532D01*
X3493Y50582D02*
X9532Y50582D01*
X3543Y50631D02*
X9482Y50631D01*
X3592Y50681D02*
X9433Y50681D01*
%LNpour fill*%
X35125Y45660D02*
X35125Y45660D01*
X31375Y45660*
X31375Y42211*
X35125Y42211*
X35125Y45660*
X31375Y42235D02*
X35125Y42235D01*
X31375Y42284D02*
X35125Y42284D01*
X31375Y42334D02*
X35125Y42334D01*
X31375Y42383D02*
X35125Y42383D01*
X31375Y42433D02*
X35125Y42433D01*
X31375Y42483D02*
X35125Y42483D01*
X31375Y42532D02*
X35125Y42532D01*
X31375Y42582D02*
X35125Y42582D01*
X31375Y42631D02*
X35125Y42631D01*
X31375Y42681D02*
X35125Y42681D01*
X31375Y42730D02*
X35125Y42730D01*
X31375Y42780D02*
X35125Y42780D01*
X31375Y42829D02*
X35125Y42829D01*
X31375Y42879D02*
X35125Y42879D01*
X31375Y42928D02*
X35125Y42928D01*
X31375Y42978D02*
X35125Y42978D01*
X31375Y43027D02*
X35125Y43027D01*
X31375Y43077D02*
X35125Y43077D01*
X31375Y43126D02*
X35125Y43126D01*
X31375Y43176D02*
X35125Y43176D01*
X31375Y43225D02*
X35125Y43225D01*
X31375Y43275D02*
X35125Y43275D01*
X31375Y43325D02*
X35125Y43325D01*
X31375Y43374D02*
X35125Y43374D01*
X31375Y43424D02*
X35125Y43424D01*
X31375Y43473D02*
X35125Y43473D01*
X31375Y43523D02*
X35125Y43523D01*
X31375Y43572D02*
X35125Y43572D01*
X31375Y43622D02*
X35125Y43622D01*
X31375Y43671D02*
X35125Y43671D01*
X31375Y43721D02*
X35125Y43721D01*
X31375Y43770D02*
X35125Y43770D01*
X31375Y43820D02*
X35125Y43820D01*
X31375Y43869D02*
X35125Y43869D01*
X31375Y43919D02*
X35125Y43919D01*
X31375Y43968D02*
X35125Y43968D01*
X31375Y44018D02*
X35125Y44018D01*
X31375Y44067D02*
X35125Y44067D01*
X31375Y44117D02*
X35125Y44117D01*
X31375Y44167D02*
X35125Y44167D01*
X31375Y44216D02*
X35125Y44216D01*
X31375Y44266D02*
X35125Y44266D01*
X31375Y44315D02*
X35125Y44315D01*
X31375Y44365D02*
X35125Y44365D01*
X31375Y44414D02*
X35125Y44414D01*
X31375Y44464D02*
X35125Y44464D01*
X31375Y44513D02*
X35125Y44513D01*
X31375Y44563D02*
X35125Y44563D01*
X31375Y44612D02*
X35125Y44612D01*
X31375Y44662D02*
X35125Y44662D01*
X31375Y44711D02*
X35125Y44711D01*
X31375Y44761D02*
X35125Y44761D01*
X31375Y44810D02*
X35125Y44810D01*
X31375Y44860D02*
X35125Y44860D01*
X31375Y44910D02*
X35125Y44910D01*
X31375Y44959D02*
X35125Y44959D01*
X31375Y45009D02*
X35125Y45009D01*
X31375Y45058D02*
X35125Y45058D01*
X31375Y45108D02*
X35125Y45108D01*
X31375Y45157D02*
X35125Y45157D01*
X31375Y45207D02*
X35125Y45207D01*
X31375Y45256D02*
X35125Y45256D01*
X31375Y45306D02*
X35125Y45306D01*
X31375Y45355D02*
X35125Y45355D01*
X31375Y45405D02*
X35125Y45405D01*
X31375Y45454D02*
X35125Y45454D01*
X31375Y45504D02*
X35125Y45504D01*
X31375Y45553D02*
X35125Y45553D01*
X31375Y45603D02*
X35125Y45603D01*
X31375Y45652D02*
X35125Y45652D01*
%LNpour fill*%
X51776Y5273D02*
X51776Y5273D01*
X51801Y5347*
X51723Y5463*
X51721Y5467*
X51686Y5646*
X51686Y5649*
X51686Y20851*
X51686Y20854*
X51714Y20994*
X51656Y21100*
X41164Y21100*
X41077Y21064*
X41074Y21063*
X40901Y21040*
X40899Y21040*
X38959Y21040*
X38560Y20641*
X38560Y11973*
X38560Y11971*
X38537Y11798*
X38536Y11795*
X38469Y11633*
X38467Y11630*
X38361Y11491*
X38358Y11488*
X38353Y11484*
X37760Y10891*
X37760Y7981*
X41106Y7981*
X41121Y7967*
X41121Y5249*
X51759Y5249*
X51776Y5273*
X41121Y5273D02*
X51776Y5273D01*
X41121Y5323D02*
X51793Y5323D01*
X41121Y5372D02*
X51784Y5372D01*
X41121Y5422D02*
X51751Y5422D01*
X41121Y5471D02*
X51721Y5471D01*
X41121Y5521D02*
X51711Y5521D01*
X41121Y5570D02*
X51701Y5570D01*
X41121Y5620D02*
X51691Y5620D01*
X41121Y5669D02*
X51686Y5669D01*
X41121Y5719D02*
X51686Y5719D01*
X41121Y5769D02*
X51686Y5769D01*
X41121Y5818D02*
X51686Y5818D01*
X41121Y5868D02*
X51686Y5868D01*
X41121Y5917D02*
X51686Y5917D01*
X41121Y5967D02*
X51686Y5967D01*
X41121Y6016D02*
X51686Y6016D01*
X41121Y6066D02*
X51686Y6066D01*
X41121Y6115D02*
X51686Y6115D01*
X41121Y6165D02*
X51686Y6165D01*
X41121Y6214D02*
X51686Y6214D01*
X41121Y6264D02*
X51686Y6264D01*
X41121Y6313D02*
X51686Y6313D01*
X41121Y6363D02*
X51686Y6363D01*
X41121Y6412D02*
X51686Y6412D01*
X41121Y6462D02*
X51686Y6462D01*
X41121Y6511D02*
X51686Y6511D01*
X41121Y6561D02*
X51686Y6561D01*
X41121Y6611D02*
X51686Y6611D01*
X41121Y6660D02*
X51686Y6660D01*
X41121Y6710D02*
X51686Y6710D01*
X41121Y6759D02*
X51686Y6759D01*
X41121Y6809D02*
X51686Y6809D01*
X41121Y6858D02*
X51686Y6858D01*
X41121Y6908D02*
X51686Y6908D01*
X41121Y6957D02*
X51686Y6957D01*
X41121Y7007D02*
X51686Y7007D01*
X41121Y7056D02*
X51686Y7056D01*
X41121Y7106D02*
X51686Y7106D01*
X41121Y7155D02*
X51686Y7155D01*
X41121Y7205D02*
X51686Y7205D01*
X41121Y7254D02*
X51686Y7254D01*
X41121Y7304D02*
X51686Y7304D01*
X41121Y7354D02*
X51686Y7354D01*
X41121Y7403D02*
X51686Y7403D01*
X41121Y7453D02*
X51686Y7453D01*
X41121Y7502D02*
X51686Y7502D01*
X41121Y7552D02*
X51686Y7552D01*
X41121Y7601D02*
X51686Y7601D01*
X41121Y7651D02*
X51686Y7651D01*
X41121Y7700D02*
X51686Y7700D01*
X41121Y7750D02*
X51686Y7750D01*
X41121Y7799D02*
X51686Y7799D01*
X41121Y7849D02*
X51686Y7849D01*
X41121Y7898D02*
X51686Y7898D01*
X41121Y7948D02*
X51686Y7948D01*
X37760Y7997D02*
X51686Y7997D01*
X37760Y8047D02*
X51686Y8047D01*
X37760Y8096D02*
X51686Y8096D01*
X37760Y8146D02*
X51686Y8146D01*
X37760Y8196D02*
X51686Y8196D01*
X37760Y8245D02*
X51686Y8245D01*
X37760Y8295D02*
X51686Y8295D01*
X37760Y8344D02*
X51686Y8344D01*
X37760Y8394D02*
X51686Y8394D01*
X37760Y8443D02*
X51686Y8443D01*
X37760Y8493D02*
X51686Y8493D01*
X37760Y8542D02*
X51686Y8542D01*
X37760Y8592D02*
X51686Y8592D01*
X37760Y8641D02*
X51686Y8641D01*
X37760Y8691D02*
X51686Y8691D01*
X37760Y8740D02*
X51686Y8740D01*
X37760Y8790D02*
X51686Y8790D01*
X37760Y8839D02*
X51686Y8839D01*
X37760Y8889D02*
X51686Y8889D01*
X37760Y8938D02*
X51686Y8938D01*
X37760Y8988D02*
X51686Y8988D01*
X37760Y9038D02*
X51686Y9038D01*
X37760Y9087D02*
X51686Y9087D01*
X37760Y9137D02*
X51686Y9137D01*
X37760Y9186D02*
X51686Y9186D01*
X37760Y9236D02*
X51686Y9236D01*
X37760Y9285D02*
X51686Y9285D01*
X37760Y9335D02*
X51686Y9335D01*
X37760Y9384D02*
X51686Y9384D01*
X37760Y9434D02*
X51686Y9434D01*
X37760Y9483D02*
X51686Y9483D01*
X37760Y9533D02*
X51686Y9533D01*
X37760Y9582D02*
X51686Y9582D01*
X37760Y9632D02*
X51686Y9632D01*
X37760Y9681D02*
X51686Y9681D01*
X37760Y9731D02*
X51686Y9731D01*
X37760Y9780D02*
X51686Y9780D01*
X37760Y9830D02*
X51686Y9830D01*
X37760Y9880D02*
X51686Y9880D01*
X37760Y9929D02*
X51686Y9929D01*
X37760Y9979D02*
X51686Y9979D01*
X37760Y10028D02*
X51686Y10028D01*
X37760Y10078D02*
X51686Y10078D01*
X37760Y10127D02*
X51686Y10127D01*
X37760Y10177D02*
X51686Y10177D01*
X37760Y10226D02*
X51686Y10226D01*
X37760Y10276D02*
X51686Y10276D01*
X37760Y10325D02*
X51686Y10325D01*
X37760Y10375D02*
X51686Y10375D01*
X37760Y10424D02*
X51686Y10424D01*
X37760Y10474D02*
X51686Y10474D01*
X37760Y10523D02*
X51686Y10523D01*
X37760Y10573D02*
X51686Y10573D01*
X37760Y10622D02*
X51686Y10622D01*
X37760Y10672D02*
X51686Y10672D01*
X37760Y10722D02*
X51686Y10722D01*
X37760Y10771D02*
X51686Y10771D01*
X37760Y10821D02*
X51686Y10821D01*
X37760Y10870D02*
X51686Y10870D01*
X37788Y10920D02*
X51686Y10920D01*
X37838Y10969D02*
X51686Y10969D01*
X37887Y11019D02*
X51686Y11019D01*
X37937Y11068D02*
X51686Y11068D01*
X37986Y11118D02*
X51686Y11118D01*
X38036Y11167D02*
X51686Y11167D01*
X38086Y11217D02*
X51686Y11217D01*
X38135Y11266D02*
X51686Y11266D01*
X38185Y11316D02*
X51686Y11316D01*
X38234Y11365D02*
X51686Y11365D01*
X38284Y11415D02*
X51686Y11415D01*
X38333Y11464D02*
X51686Y11464D01*
X38379Y11514D02*
X51686Y11514D01*
X38417Y11564D02*
X51686Y11564D01*
X38455Y11613D02*
X51686Y11613D01*
X38481Y11663D02*
X51686Y11663D01*
X38502Y11712D02*
X51686Y11712D01*
X38523Y11762D02*
X51686Y11762D01*
X38539Y11811D02*
X51686Y11811D01*
X38545Y11861D02*
X51686Y11861D01*
X38552Y11910D02*
X51686Y11910D01*
X38558Y11960D02*
X51686Y11960D01*
X38560Y12009D02*
X51686Y12009D01*
X38560Y12059D02*
X51686Y12059D01*
X38560Y12108D02*
X51686Y12108D01*
X38560Y12158D02*
X51686Y12158D01*
X38560Y12207D02*
X51686Y12207D01*
X38560Y12257D02*
X51686Y12257D01*
X38560Y12307D02*
X51686Y12307D01*
X38560Y12356D02*
X51686Y12356D01*
X38560Y12406D02*
X51686Y12406D01*
X38560Y12455D02*
X51686Y12455D01*
X38560Y12505D02*
X51686Y12505D01*
X38560Y12554D02*
X51686Y12554D01*
X38560Y12604D02*
X51686Y12604D01*
X38560Y12653D02*
X51686Y12653D01*
X38560Y12703D02*
X51686Y12703D01*
X38560Y12752D02*
X51686Y12752D01*
X38560Y12802D02*
X51686Y12802D01*
X38560Y12851D02*
X51686Y12851D01*
X38560Y12901D02*
X51686Y12901D01*
X38560Y12950D02*
X51686Y12950D01*
X38560Y13000D02*
X51686Y13000D01*
X38560Y13049D02*
X51686Y13049D01*
X38560Y13099D02*
X51686Y13099D01*
X38560Y13149D02*
X51686Y13149D01*
X38560Y13198D02*
X51686Y13198D01*
X38560Y13248D02*
X51686Y13248D01*
X38560Y13297D02*
X51686Y13297D01*
X38560Y13347D02*
X51686Y13347D01*
X38560Y13396D02*
X51686Y13396D01*
X38560Y13446D02*
X51686Y13446D01*
X38560Y13495D02*
X51686Y13495D01*
X38560Y13545D02*
X51686Y13545D01*
X38560Y13594D02*
X51686Y13594D01*
X38560Y13644D02*
X51686Y13644D01*
X38560Y13693D02*
X51686Y13693D01*
X38560Y13743D02*
X51686Y13743D01*
X38560Y13792D02*
X51686Y13792D01*
X38560Y13842D02*
X51686Y13842D01*
X38560Y13891D02*
X51686Y13891D01*
X38560Y13941D02*
X51686Y13941D01*
X38560Y13991D02*
X51686Y13991D01*
X38560Y14040D02*
X51686Y14040D01*
X38560Y14090D02*
X51686Y14090D01*
X38560Y14139D02*
X51686Y14139D01*
X38560Y14189D02*
X51686Y14189D01*
X38560Y14238D02*
X51686Y14238D01*
X38560Y14288D02*
X51686Y14288D01*
X38560Y14337D02*
X51686Y14337D01*
X38560Y14387D02*
X51686Y14387D01*
X38560Y14436D02*
X51686Y14436D01*
X38560Y14486D02*
X51686Y14486D01*
X38560Y14535D02*
X51686Y14535D01*
X38560Y14585D02*
X51686Y14585D01*
X38560Y14634D02*
X51686Y14634D01*
X38560Y14684D02*
X51686Y14684D01*
X38560Y14733D02*
X51686Y14733D01*
X38560Y14783D02*
X51686Y14783D01*
X38560Y14833D02*
X51686Y14833D01*
X38560Y14882D02*
X51686Y14882D01*
X38560Y14932D02*
X51686Y14932D01*
X38560Y14981D02*
X51686Y14981D01*
X38560Y15031D02*
X51686Y15031D01*
X38560Y15080D02*
X51686Y15080D01*
X38560Y15130D02*
X51686Y15130D01*
X38560Y15179D02*
X51686Y15179D01*
X38560Y15229D02*
X51686Y15229D01*
X38560Y15278D02*
X51686Y15278D01*
X38560Y15328D02*
X51686Y15328D01*
X38560Y15377D02*
X51686Y15377D01*
X38560Y15427D02*
X51686Y15427D01*
X38560Y15476D02*
X51686Y15476D01*
X38560Y15526D02*
X51686Y15526D01*
X38560Y15575D02*
X51686Y15575D01*
X38560Y15625D02*
X51686Y15625D01*
X38560Y15675D02*
X51686Y15675D01*
X38560Y15724D02*
X51686Y15724D01*
X38560Y15774D02*
X51686Y15774D01*
X38560Y15823D02*
X51686Y15823D01*
X38560Y15873D02*
X51686Y15873D01*
X38560Y15922D02*
X51686Y15922D01*
X38560Y15972D02*
X51686Y15972D01*
X38560Y16021D02*
X51686Y16021D01*
X38560Y16071D02*
X51686Y16071D01*
X38560Y16120D02*
X51686Y16120D01*
X38560Y16170D02*
X51686Y16170D01*
X38560Y16219D02*
X51686Y16219D01*
X38560Y16269D02*
X51686Y16269D01*
X38560Y16318D02*
X51686Y16318D01*
X38560Y16368D02*
X51686Y16368D01*
X38560Y16417D02*
X51686Y16417D01*
X38560Y16467D02*
X51686Y16467D01*
X38560Y16517D02*
X51686Y16517D01*
X38560Y16566D02*
X51686Y16566D01*
X38560Y16616D02*
X51686Y16616D01*
X38560Y16665D02*
X51686Y16665D01*
X38560Y16715D02*
X51686Y16715D01*
X38560Y16764D02*
X51686Y16764D01*
X38560Y16814D02*
X51686Y16814D01*
X38560Y16863D02*
X51686Y16863D01*
X38560Y16913D02*
X51686Y16913D01*
X38560Y16962D02*
X51686Y16962D01*
X38560Y17012D02*
X51686Y17012D01*
X38560Y17061D02*
X51686Y17061D01*
X38560Y17111D02*
X51686Y17111D01*
X38560Y17160D02*
X51686Y17160D01*
X38560Y17210D02*
X51686Y17210D01*
X38560Y17260D02*
X51686Y17260D01*
X38560Y17309D02*
X51686Y17309D01*
X38560Y17359D02*
X51686Y17359D01*
X38560Y17408D02*
X51686Y17408D01*
X38560Y17458D02*
X51686Y17458D01*
X38560Y17507D02*
X51686Y17507D01*
X38560Y17557D02*
X51686Y17557D01*
X38560Y17606D02*
X51686Y17606D01*
X38560Y17656D02*
X51686Y17656D01*
X38560Y17705D02*
X51686Y17705D01*
X38560Y17755D02*
X51686Y17755D01*
X38560Y17804D02*
X51686Y17804D01*
X38560Y17854D02*
X51686Y17854D01*
X38560Y17903D02*
X51686Y17903D01*
X38560Y17953D02*
X51686Y17953D01*
X38560Y18002D02*
X51686Y18002D01*
X38560Y18052D02*
X51686Y18052D01*
X38560Y18102D02*
X51686Y18102D01*
X38560Y18151D02*
X51686Y18151D01*
X38560Y18201D02*
X51686Y18201D01*
X38560Y18250D02*
X51686Y18250D01*
X38560Y18300D02*
X51686Y18300D01*
X38560Y18349D02*
X51686Y18349D01*
X38560Y18399D02*
X51686Y18399D01*
X38560Y18448D02*
X51686Y18448D01*
X38560Y18498D02*
X51686Y18498D01*
X38560Y18547D02*
X51686Y18547D01*
X38560Y18597D02*
X51686Y18597D01*
X38560Y18646D02*
X51686Y18646D01*
X38560Y18696D02*
X51686Y18696D01*
X38560Y18745D02*
X51686Y18745D01*
X38560Y18795D02*
X51686Y18795D01*
X38560Y18844D02*
X51686Y18844D01*
X38560Y18894D02*
X51686Y18894D01*
X38560Y18944D02*
X51686Y18944D01*
X38560Y18993D02*
X51686Y18993D01*
X38560Y19043D02*
X51686Y19043D01*
X38560Y19092D02*
X51686Y19092D01*
X38560Y19142D02*
X51686Y19142D01*
X38560Y19191D02*
X51686Y19191D01*
X38560Y19241D02*
X51686Y19241D01*
X38560Y19290D02*
X51686Y19290D01*
X38560Y19340D02*
X51686Y19340D01*
X38560Y19389D02*
X51686Y19389D01*
X38560Y19439D02*
X51686Y19439D01*
X38560Y19488D02*
X51686Y19488D01*
X38560Y19538D02*
X51686Y19538D01*
X38560Y19587D02*
X51686Y19587D01*
X38560Y19637D02*
X51686Y19637D01*
X38560Y19686D02*
X51686Y19686D01*
X38560Y19736D02*
X51686Y19736D01*
X38560Y19786D02*
X51686Y19786D01*
X38560Y19835D02*
X51686Y19835D01*
X38560Y19885D02*
X51686Y19885D01*
X38560Y19934D02*
X51686Y19934D01*
X38560Y19984D02*
X51686Y19984D01*
X38560Y20033D02*
X51686Y20033D01*
X38560Y20083D02*
X51686Y20083D01*
X38560Y20132D02*
X51686Y20132D01*
X38560Y20182D02*
X51686Y20182D01*
X38560Y20231D02*
X51686Y20231D01*
X38560Y20281D02*
X51686Y20281D01*
X38560Y20330D02*
X51686Y20330D01*
X38560Y20380D02*
X51686Y20380D01*
X38560Y20429D02*
X51686Y20429D01*
X38560Y20479D02*
X51686Y20479D01*
X38560Y20528D02*
X51686Y20528D01*
X38560Y20578D02*
X51686Y20578D01*
X38560Y20628D02*
X51686Y20628D01*
X38596Y20677D02*
X51686Y20677D01*
X38645Y20727D02*
X51686Y20727D01*
X38695Y20776D02*
X51686Y20776D01*
X38744Y20826D02*
X51686Y20826D01*
X38794Y20875D02*
X51690Y20875D01*
X38844Y20925D02*
X51700Y20925D01*
X38893Y20974D02*
X51710Y20974D01*
X38943Y21024D02*
X51697Y21024D01*
X41100Y21073D02*
X51670Y21073D01*
X66851Y4228D02*
X66851Y4228D01*
X67929Y5333*
X67929Y6045*
X67618Y6045*
X67370Y5833*
X67368Y5831*
X67074Y5651*
X67072Y5650*
X66754Y5518*
X66752Y5518*
X66417Y5437*
X66415Y5437*
X66071Y5410*
X66069Y5410*
X65725Y5437*
X65723Y5437*
X65388Y5518*
X65386Y5518*
X65068Y5650*
X65066Y5651*
X64772Y5831*
X64770Y5833*
X64508Y6056*
X64506Y6058*
X64283Y6320*
X64281Y6322*
X64101Y6616*
X64100Y6618*
X63968Y6936*
X63968Y6938*
X63887Y7273*
X63887Y7275*
X63870Y7495*
X63870Y7495*
X63870Y7495*
X63860Y7619*
X63860Y7621*
X63887Y7965*
X63887Y7967*
X63968Y8302*
X63968Y8304*
X64100Y8622*
X64101Y8624*
X64281Y8918*
X64283Y8920*
X64506Y9182*
X64508Y9184*
X64770Y9407*
X64772Y9409*
X65066Y9589*
X65068Y9590*
X65386Y9722*
X65388Y9722*
X65723Y9803*
X65725Y9803*
X66069Y9830*
X66071Y9830*
X66415Y9803*
X66417Y9803*
X66752Y9722*
X66754Y9722*
X67072Y9590*
X67074Y9589*
X67341Y9425*
X67925Y9425*
X67925Y21100*
X52784Y21100*
X52726Y20994*
X52754Y20854*
X52754Y20851*
X52754Y5649*
X52754Y5646*
X52718Y5467*
X52716Y5463*
X52639Y5347*
X52663Y5273*
X52680Y5249*
X56286Y5249*
X56287Y5249*
X56366Y5239*
X56447Y5233*
X56450Y5233*
X56475Y5224*
X56500Y5221*
X56504Y5220*
X56578Y5189*
X56654Y5164*
X56657Y5162*
X56679Y5148*
X56703Y5138*
X56706Y5136*
X56770Y5087*
X56836Y5043*
X56837Y5042*
X58002Y4021*
X66644Y4021*
X66851Y4228*
X57974Y4045D02*
X66668Y4045D01*
X57918Y4095D02*
X66717Y4095D01*
X57861Y4145D02*
X66767Y4145D01*
X57805Y4194D02*
X66816Y4194D01*
X57748Y4244D02*
X66865Y4244D01*
X57692Y4293D02*
X66914Y4293D01*
X57635Y4343D02*
X66962Y4343D01*
X57579Y4392D02*
X67011Y4392D01*
X57522Y4442D02*
X67059Y4442D01*
X57466Y4491D02*
X67107Y4491D01*
X57409Y4541D02*
X67156Y4541D01*
X57352Y4590D02*
X67204Y4590D01*
X57296Y4640D02*
X67252Y4640D01*
X57239Y4689D02*
X67301Y4689D01*
X57183Y4739D02*
X67349Y4739D01*
X57126Y4788D02*
X67397Y4788D01*
X57070Y4838D02*
X67446Y4838D01*
X57013Y4887D02*
X67494Y4887D01*
X56957Y4937D02*
X67542Y4937D01*
X56900Y4987D02*
X67591Y4987D01*
X56844Y5036D02*
X67639Y5036D01*
X56772Y5086D02*
X67688Y5086D01*
X56707Y5135D02*
X67736Y5135D01*
X56592Y5185D02*
X67784Y5185D01*
X56435Y5234D02*
X67833Y5234D01*
X52660Y5284D02*
X67881Y5284D01*
X52643Y5333D02*
X67929Y5333D01*
X52663Y5383D02*
X67929Y5383D01*
X52696Y5432D02*
X65784Y5432D01*
X66356Y5432D02*
X67929Y5432D01*
X52721Y5482D02*
X65537Y5482D01*
X66603Y5482D02*
X67929Y5482D01*
X52731Y5531D02*
X65355Y5531D01*
X66785Y5531D02*
X67929Y5531D01*
X52741Y5581D02*
X65235Y5581D01*
X66905Y5581D02*
X67929Y5581D01*
X52751Y5630D02*
X65115Y5630D01*
X67025Y5630D02*
X67929Y5630D01*
X52754Y5680D02*
X65019Y5680D01*
X67121Y5680D02*
X67929Y5680D01*
X52754Y5729D02*
X64938Y5729D01*
X67202Y5729D02*
X67929Y5729D01*
X52754Y5779D02*
X64857Y5779D01*
X67283Y5779D02*
X67929Y5779D01*
X52754Y5829D02*
X64776Y5829D01*
X67364Y5829D02*
X67929Y5829D01*
X52754Y5878D02*
X64717Y5878D01*
X67423Y5878D02*
X67929Y5878D01*
X52754Y5928D02*
X64659Y5928D01*
X67481Y5928D02*
X67929Y5928D01*
X52754Y5977D02*
X64601Y5977D01*
X67539Y5977D02*
X67929Y5977D01*
X52754Y6027D02*
X64543Y6027D01*
X67597Y6027D02*
X67929Y6027D01*
X52754Y6076D02*
X64491Y6076D01*
X52754Y6126D02*
X64449Y6126D01*
X52754Y6175D02*
X64406Y6175D01*
X52754Y6225D02*
X64364Y6225D01*
X52754Y6274D02*
X64322Y6274D01*
X52754Y6324D02*
X64280Y6324D01*
X52754Y6373D02*
X64250Y6373D01*
X52754Y6423D02*
X64219Y6423D01*
X52754Y6472D02*
X64189Y6472D01*
X52754Y6522D02*
X64159Y6522D01*
X52754Y6571D02*
X64128Y6571D01*
X52754Y6621D02*
X64099Y6621D01*
X52754Y6671D02*
X64078Y6671D01*
X52754Y6720D02*
X64058Y6720D01*
X52754Y6770D02*
X64037Y6770D01*
X52754Y6819D02*
X64017Y6819D01*
X52754Y6869D02*
X63996Y6869D01*
X52754Y6918D02*
X63976Y6918D01*
X52754Y6968D02*
X63961Y6968D01*
X52754Y7017D02*
X63949Y7017D01*
X52754Y7067D02*
X63937Y7067D01*
X52754Y7116D02*
X63925Y7116D01*
X52754Y7166D02*
X63913Y7166D01*
X52754Y7215D02*
X63901Y7215D01*
X52754Y7265D02*
X63889Y7265D01*
X52754Y7314D02*
X63884Y7314D01*
X52754Y7364D02*
X63880Y7364D01*
X52754Y7414D02*
X63876Y7414D01*
X52754Y7463D02*
X63872Y7463D01*
X52754Y7513D02*
X63868Y7513D01*
X52754Y7562D02*
X63864Y7562D01*
X52754Y7612D02*
X63860Y7612D01*
X52754Y7661D02*
X63863Y7661D01*
X52754Y7711D02*
X63867Y7711D01*
X52754Y7760D02*
X63871Y7760D01*
X52754Y7810D02*
X63875Y7810D01*
X52754Y7859D02*
X63879Y7859D01*
X52754Y7909D02*
X63883Y7909D01*
X52754Y7958D02*
X63886Y7958D01*
X52754Y8008D02*
X63897Y8008D01*
X52754Y8057D02*
X63909Y8057D01*
X52754Y8107D02*
X63921Y8107D01*
X52754Y8156D02*
X63933Y8156D01*
X52754Y8206D02*
X63945Y8206D01*
X52754Y8256D02*
X63957Y8256D01*
X52754Y8305D02*
X63969Y8305D01*
X52754Y8355D02*
X63989Y8355D01*
X52754Y8404D02*
X64010Y8404D01*
X52754Y8454D02*
X64030Y8454D01*
X52754Y8503D02*
X64051Y8503D01*
X52754Y8553D02*
X64071Y8553D01*
X52754Y8602D02*
X64092Y8602D01*
X52754Y8652D02*
X64118Y8652D01*
X52754Y8701D02*
X64148Y8701D01*
X52754Y8751D02*
X64179Y8751D01*
X52754Y8800D02*
X64209Y8800D01*
X52754Y8850D02*
X64239Y8850D01*
X52754Y8899D02*
X64270Y8899D01*
X52754Y8949D02*
X64307Y8949D01*
X52754Y8998D02*
X64350Y8998D01*
X52754Y9048D02*
X64392Y9048D01*
X52754Y9098D02*
X64434Y9098D01*
X52754Y9147D02*
X64477Y9147D01*
X52754Y9197D02*
X64523Y9197D01*
X52754Y9246D02*
X64581Y9246D01*
X52754Y9296D02*
X64639Y9296D01*
X52754Y9345D02*
X64697Y9345D01*
X52754Y9395D02*
X64755Y9395D01*
X52754Y9444D02*
X64830Y9444D01*
X67310Y9444D02*
X67925Y9444D01*
X52754Y9494D02*
X64911Y9494D01*
X67229Y9494D02*
X67925Y9494D01*
X52754Y9543D02*
X64991Y9543D01*
X67149Y9543D02*
X67925Y9543D01*
X52754Y9593D02*
X65075Y9593D01*
X67065Y9593D02*
X67925Y9593D01*
X52754Y9642D02*
X65195Y9642D01*
X66945Y9642D02*
X67925Y9642D01*
X52754Y9692D02*
X65314Y9692D01*
X66826Y9692D02*
X67925Y9692D01*
X52754Y9741D02*
X65468Y9741D01*
X66672Y9741D02*
X67925Y9741D01*
X52754Y9791D02*
X65674Y9791D01*
X66466Y9791D02*
X67925Y9791D01*
X52754Y9840D02*
X67925Y9840D01*
X52754Y9890D02*
X67925Y9890D01*
X52754Y9940D02*
X67925Y9940D01*
X52754Y9989D02*
X67925Y9989D01*
X52754Y10039D02*
X67925Y10039D01*
X52754Y10088D02*
X67925Y10088D01*
X52754Y10138D02*
X67925Y10138D01*
X52754Y10187D02*
X67925Y10187D01*
X52754Y10237D02*
X67925Y10237D01*
X52754Y10286D02*
X67925Y10286D01*
X52754Y10336D02*
X67925Y10336D01*
X52754Y10385D02*
X67925Y10385D01*
X52754Y10435D02*
X67925Y10435D01*
X52754Y10484D02*
X67925Y10484D01*
X52754Y10534D02*
X67925Y10534D01*
X52754Y10583D02*
X67925Y10583D01*
X52754Y10633D02*
X67925Y10633D01*
X52754Y10682D02*
X67925Y10682D01*
X52754Y10732D02*
X67925Y10732D01*
X52754Y10782D02*
X67925Y10782D01*
X52754Y10831D02*
X67925Y10831D01*
X52754Y10881D02*
X67925Y10881D01*
X52754Y10930D02*
X67925Y10930D01*
X52754Y10980D02*
X67925Y10980D01*
X52754Y11029D02*
X67925Y11029D01*
X52754Y11079D02*
X67925Y11079D01*
X52754Y11128D02*
X67925Y11128D01*
X52754Y11178D02*
X67925Y11178D01*
X52754Y11227D02*
X67925Y11227D01*
X52754Y11277D02*
X67925Y11277D01*
X52754Y11326D02*
X67925Y11326D01*
X52754Y11376D02*
X67925Y11376D01*
X52754Y11425D02*
X67925Y11425D01*
X52754Y11475D02*
X67925Y11475D01*
X52754Y11524D02*
X67925Y11524D01*
X52754Y11574D02*
X67925Y11574D01*
X52754Y11624D02*
X67925Y11624D01*
X52754Y11673D02*
X67925Y11673D01*
X52754Y11723D02*
X67925Y11723D01*
X52754Y11772D02*
X67925Y11772D01*
X52754Y11822D02*
X67925Y11822D01*
X52754Y11871D02*
X67925Y11871D01*
X52754Y11921D02*
X67925Y11921D01*
X52754Y11970D02*
X67925Y11970D01*
X52754Y12020D02*
X67925Y12020D01*
X52754Y12069D02*
X67925Y12069D01*
X52754Y12119D02*
X67925Y12119D01*
X52754Y12168D02*
X67925Y12168D01*
X52754Y12218D02*
X67925Y12218D01*
X52754Y12267D02*
X67925Y12267D01*
X52754Y12317D02*
X67925Y12317D01*
X52754Y12367D02*
X67925Y12367D01*
X52754Y12416D02*
X67925Y12416D01*
X52754Y12466D02*
X67925Y12466D01*
X52754Y12515D02*
X67925Y12515D01*
X52754Y12565D02*
X67925Y12565D01*
X52754Y12614D02*
X67925Y12614D01*
X52754Y12664D02*
X67925Y12664D01*
X52754Y12713D02*
X67925Y12713D01*
X52754Y12763D02*
X67925Y12763D01*
X52754Y12812D02*
X67925Y12812D01*
X52754Y12862D02*
X67925Y12862D01*
X52754Y12911D02*
X67925Y12911D01*
X52754Y12961D02*
X67925Y12961D01*
X52754Y13010D02*
X67925Y13010D01*
X52754Y13060D02*
X67925Y13060D01*
X52754Y13109D02*
X67925Y13109D01*
X52754Y13159D02*
X67925Y13159D01*
X52754Y13209D02*
X67925Y13209D01*
X52754Y13258D02*
X67925Y13258D01*
X52754Y13308D02*
X67925Y13308D01*
X52754Y13357D02*
X67925Y13357D01*
X52754Y13407D02*
X67925Y13407D01*
X52754Y13456D02*
X67925Y13456D01*
X52754Y13506D02*
X67925Y13506D01*
X52754Y13555D02*
X67925Y13555D01*
X52754Y13605D02*
X67925Y13605D01*
X52754Y13654D02*
X67925Y13654D01*
X52754Y13704D02*
X67925Y13704D01*
X52754Y13753D02*
X67925Y13753D01*
X52754Y13803D02*
X67925Y13803D01*
X52754Y13852D02*
X67925Y13852D01*
X52754Y13902D02*
X67925Y13902D01*
X52754Y13951D02*
X67925Y13951D01*
X52754Y14001D02*
X67925Y14001D01*
X52754Y14051D02*
X67925Y14051D01*
X52754Y14100D02*
X67925Y14100D01*
X52754Y14150D02*
X67925Y14150D01*
X52754Y14199D02*
X67925Y14199D01*
X52754Y14249D02*
X67925Y14249D01*
X52754Y14298D02*
X67925Y14298D01*
X52754Y14348D02*
X67925Y14348D01*
X52754Y14397D02*
X67925Y14397D01*
X52754Y14447D02*
X67925Y14447D01*
X52754Y14496D02*
X67925Y14496D01*
X52754Y14546D02*
X67925Y14546D01*
X52754Y14595D02*
X67925Y14595D01*
X52754Y14645D02*
X67925Y14645D01*
X52754Y14694D02*
X67925Y14694D01*
X52754Y14744D02*
X67925Y14744D01*
X52754Y14793D02*
X67925Y14793D01*
X52754Y14843D02*
X67925Y14843D01*
X52754Y14893D02*
X67925Y14893D01*
X52754Y14942D02*
X67925Y14942D01*
X52754Y14992D02*
X67925Y14992D01*
X52754Y15041D02*
X67925Y15041D01*
X52754Y15091D02*
X67925Y15091D01*
X52754Y15140D02*
X67925Y15140D01*
X52754Y15190D02*
X67925Y15190D01*
X52754Y15239D02*
X67925Y15239D01*
X52754Y15289D02*
X67925Y15289D01*
X52754Y15338D02*
X67925Y15338D01*
X52754Y15388D02*
X67925Y15388D01*
X52754Y15437D02*
X67925Y15437D01*
X52754Y15487D02*
X67925Y15487D01*
X52754Y15536D02*
X67925Y15536D01*
X52754Y15586D02*
X67925Y15586D01*
X52754Y15635D02*
X67925Y15635D01*
X52754Y15685D02*
X67925Y15685D01*
X52754Y15735D02*
X67925Y15735D01*
X52754Y15784D02*
X67925Y15784D01*
X52754Y15834D02*
X67925Y15834D01*
X52754Y15883D02*
X67925Y15883D01*
X52754Y15933D02*
X67925Y15933D01*
X52754Y15982D02*
X67925Y15982D01*
X52754Y16032D02*
X67925Y16032D01*
X52754Y16081D02*
X67925Y16081D01*
X52754Y16131D02*
X67925Y16131D01*
X52754Y16180D02*
X67925Y16180D01*
X52754Y16230D02*
X67925Y16230D01*
X52754Y16279D02*
X67925Y16279D01*
X52754Y16329D02*
X67925Y16329D01*
X52754Y16378D02*
X67925Y16378D01*
X52754Y16428D02*
X67925Y16428D01*
X52754Y16477D02*
X67925Y16477D01*
X52754Y16527D02*
X67925Y16527D01*
X52754Y16577D02*
X67925Y16577D01*
X52754Y16626D02*
X67925Y16626D01*
X52754Y16676D02*
X67925Y16676D01*
X52754Y16725D02*
X67925Y16725D01*
X52754Y16775D02*
X67925Y16775D01*
X52754Y16824D02*
X67925Y16824D01*
X52754Y16874D02*
X67925Y16874D01*
X52754Y16923D02*
X67925Y16923D01*
X52754Y16973D02*
X67925Y16973D01*
X52754Y17022D02*
X67925Y17022D01*
X52754Y17072D02*
X67925Y17072D01*
X52754Y17121D02*
X67925Y17121D01*
X52754Y17171D02*
X67925Y17171D01*
X52754Y17220D02*
X67925Y17220D01*
X52754Y17270D02*
X67925Y17270D01*
X52754Y17320D02*
X67925Y17320D01*
X52754Y17369D02*
X67925Y17369D01*
X52754Y17419D02*
X67925Y17419D01*
X52754Y17468D02*
X67925Y17468D01*
X52754Y17518D02*
X67925Y17518D01*
X52754Y17567D02*
X67925Y17567D01*
X52754Y17617D02*
X67925Y17617D01*
X52754Y17666D02*
X67925Y17666D01*
X52754Y17716D02*
X67925Y17716D01*
X52754Y17765D02*
X67925Y17765D01*
X52754Y17815D02*
X67925Y17815D01*
X52754Y17864D02*
X67925Y17864D01*
X52754Y17914D02*
X67925Y17914D01*
X52754Y17963D02*
X67925Y17963D01*
X52754Y18013D02*
X67925Y18013D01*
X52754Y18062D02*
X67925Y18062D01*
X52754Y18112D02*
X67925Y18112D01*
X52754Y18162D02*
X67925Y18162D01*
X52754Y18211D02*
X67925Y18211D01*
X52754Y18261D02*
X67925Y18261D01*
X52754Y18310D02*
X67925Y18310D01*
X52754Y18360D02*
X67925Y18360D01*
X52754Y18409D02*
X67925Y18409D01*
X52754Y18459D02*
X67925Y18459D01*
X52754Y18508D02*
X67925Y18508D01*
X52754Y18558D02*
X67925Y18558D01*
X52754Y18607D02*
X67925Y18607D01*
X52754Y18657D02*
X67925Y18657D01*
X52754Y18706D02*
X67925Y18706D01*
X52754Y18756D02*
X67925Y18756D01*
X52754Y18805D02*
X67925Y18805D01*
X52754Y18855D02*
X67925Y18855D01*
X52754Y18904D02*
X67925Y18904D01*
X52754Y18954D02*
X67925Y18954D01*
X52754Y19004D02*
X67925Y19004D01*
X52754Y19053D02*
X67925Y19053D01*
X52754Y19103D02*
X67925Y19103D01*
X52754Y19152D02*
X67925Y19152D01*
X52754Y19202D02*
X67925Y19202D01*
X52754Y19251D02*
X67925Y19251D01*
X52754Y19301D02*
X67925Y19301D01*
X52754Y19350D02*
X67925Y19350D01*
X52754Y19400D02*
X67925Y19400D01*
X52754Y19449D02*
X67925Y19449D01*
X52754Y19499D02*
X67925Y19499D01*
X52754Y19548D02*
X67925Y19548D01*
X52754Y19598D02*
X67925Y19598D01*
X52754Y19647D02*
X67925Y19647D01*
X52754Y19697D02*
X67925Y19697D01*
X52754Y19746D02*
X67925Y19746D01*
X52754Y19796D02*
X67925Y19796D01*
X52754Y19846D02*
X67925Y19846D01*
X52754Y19895D02*
X67925Y19895D01*
X52754Y19945D02*
X67925Y19945D01*
X52754Y19994D02*
X67925Y19994D01*
X52754Y20044D02*
X67925Y20044D01*
X52754Y20093D02*
X67925Y20093D01*
X52754Y20143D02*
X67925Y20143D01*
X52754Y20192D02*
X67925Y20192D01*
X52754Y20242D02*
X67925Y20242D01*
X52754Y20291D02*
X67925Y20291D01*
X52754Y20341D02*
X67925Y20341D01*
X52754Y20390D02*
X67925Y20390D01*
X52754Y20440D02*
X67925Y20440D01*
X52754Y20489D02*
X67925Y20489D01*
X52754Y20539D02*
X67925Y20539D01*
X52754Y20588D02*
X67925Y20588D01*
X52754Y20638D02*
X67925Y20638D01*
X52754Y20688D02*
X67925Y20688D01*
X52754Y20737D02*
X67925Y20737D01*
X52754Y20787D02*
X67925Y20787D01*
X52754Y20836D02*
X67925Y20836D01*
X52747Y20886D02*
X67925Y20886D01*
X52738Y20935D02*
X67925Y20935D01*
X52728Y20985D02*
X67925Y20985D01*
X52748Y21034D02*
X67925Y21034D01*
X52775Y21084D02*
X67925Y21084D01*
%LNpour fill*%
X35325Y20164D02*
X35325Y20164D01*
X34528Y20961*
X34525Y20970*
X34525Y22850*
X30625Y22850*
X30625Y20185*
X30945Y20185*
X30954Y20182*
X31736Y19400*
X35325Y19400*
X35325Y20164*
X31711Y19425D02*
X35325Y19425D01*
X31662Y19474D02*
X35325Y19474D01*
X31612Y19524D02*
X35325Y19524D01*
X31563Y19573D02*
X35325Y19573D01*
X31513Y19623D02*
X35325Y19623D01*
X31464Y19672D02*
X35325Y19672D01*
X31414Y19722D02*
X35325Y19722D01*
X31365Y19771D02*
X35325Y19771D01*
X31315Y19821D02*
X35325Y19821D01*
X31266Y19870D02*
X35325Y19870D01*
X31216Y19920D02*
X35325Y19920D01*
X31167Y19969D02*
X35325Y19969D01*
X31117Y20019D02*
X35325Y20019D01*
X31068Y20068D02*
X35325Y20068D01*
X31018Y20118D02*
X35325Y20118D01*
X30968Y20167D02*
X35322Y20167D01*
X30625Y20217D02*
X35272Y20217D01*
X30625Y20267D02*
X35223Y20267D01*
X30625Y20316D02*
X35173Y20316D01*
X30625Y20366D02*
X35123Y20366D01*
X30625Y20415D02*
X35074Y20415D01*
X30625Y20465D02*
X35024Y20465D01*
X30625Y20514D02*
X34975Y20514D01*
X30625Y20564D02*
X34925Y20564D01*
X30625Y20613D02*
X34876Y20613D01*
X30625Y20663D02*
X34826Y20663D01*
X30625Y20712D02*
X34777Y20712D01*
X30625Y20762D02*
X34727Y20762D01*
X30625Y20811D02*
X34678Y20811D01*
X30625Y20861D02*
X34628Y20861D01*
X30625Y20910D02*
X34579Y20910D01*
X30625Y20960D02*
X34529Y20960D01*
X30625Y21009D02*
X34525Y21009D01*
X30625Y21059D02*
X34525Y21059D01*
X30625Y21109D02*
X34525Y21109D01*
X30625Y21158D02*
X34525Y21158D01*
X30625Y21208D02*
X34525Y21208D01*
X30625Y21257D02*
X34525Y21257D01*
X30625Y21307D02*
X34525Y21307D01*
X30625Y21356D02*
X34525Y21356D01*
X30625Y21406D02*
X34525Y21406D01*
X30625Y21455D02*
X34525Y21455D01*
X30625Y21505D02*
X34525Y21505D01*
X30625Y21554D02*
X34525Y21554D01*
X30625Y21604D02*
X34525Y21604D01*
X30625Y21653D02*
X34525Y21653D01*
X30625Y21703D02*
X34525Y21703D01*
X30625Y21752D02*
X34525Y21752D01*
X30625Y21802D02*
X34525Y21802D01*
X30625Y21851D02*
X34525Y21851D01*
X30625Y21901D02*
X34525Y21901D01*
X30625Y21951D02*
X34525Y21951D01*
X30625Y22000D02*
X34525Y22000D01*
X30625Y22050D02*
X34525Y22050D01*
X30625Y22099D02*
X34525Y22099D01*
X30625Y22149D02*
X34525Y22149D01*
X30625Y22198D02*
X34525Y22198D01*
X30625Y22248D02*
X34525Y22248D01*
X30625Y22297D02*
X34525Y22297D01*
X30625Y22347D02*
X34525Y22347D01*
X30625Y22396D02*
X34525Y22396D01*
X30625Y22446D02*
X34525Y22446D01*
X30625Y22495D02*
X34525Y22495D01*
X30625Y22545D02*
X34525Y22545D01*
X30625Y22594D02*
X34525Y22594D01*
X30625Y22644D02*
X34525Y22644D01*
X30625Y22694D02*
X34525Y22694D01*
X30625Y22743D02*
X34525Y22743D01*
X30625Y22793D02*
X34525Y22793D01*
X30625Y22842D02*
X34525Y22842D01*
%LNtop copper_traces*%
D11*
X42186Y24445D02*
X41196Y25435D01*
X23956Y14725D02*
X23850Y14619D01*
X55920Y48300D02*
X39535Y48300D01*
X37875Y20925D02*
X37875Y11974D01*
X27200Y36272D02*
X26445Y36272D01*
X41196Y25435D02*
X41196Y27075D01*
X24875Y12025D02*
X24198Y11349D01*
D12*
X35825Y41291D02*
X33575Y41291D01*
D11*
X55920Y48300D02*
X58420Y50800D01*
D12*
X26575Y14725D02*
X26575Y16052D01*
X32258Y46725D02*
X31408Y47575D01*
X30299Y40888D02*
X31166Y40021D01*
D11*
X37075Y11175D02*
X37075Y3565D01*
X39535Y48300D02*
X37810Y46575D01*
D12*
X33575Y40021D02*
X31226Y40021D01*
D11*
X26470Y40812D02*
X26175Y40812D01*
D12*
X28900Y37542D02*
X28900Y36222D01*
D11*
X24875Y13349D02*
X23850Y13349D01*
X39878Y6010D02*
X39878Y6950D01*
X24308Y16619D02*
X23850Y16619D01*
D12*
X30299Y49603D02*
X30299Y48425D01*
X35664Y13410D02*
X36360Y12714D01*
D11*
X37875Y20925D02*
X38675Y21725D01*
D12*
X36746Y33997D02*
X36746Y35354D01*
X33129Y46725D02*
X34468Y48065D01*
X35721Y48068D02*
X36576Y47213D01*
D11*
X24173Y12025D02*
X23850Y12349D01*
D12*
X29393Y17220D02*
X28525Y16352D01*
D11*
X24198Y11349D02*
X23850Y11349D01*
D12*
X36576Y42042D02*
X35825Y41291D01*
X56475Y23350D02*
X58075Y23350D01*
D11*
X42186Y28065D02*
X42186Y31163D01*
D12*
X1675Y49950D02*
X1675Y5575D01*
X30990Y18490D02*
X33575Y18490D01*
D11*
X24875Y14725D02*
X23956Y14725D01*
D12*
X32352Y31025D02*
X32352Y30091D01*
X35350Y32601D02*
X35350Y21926D01*
D11*
X41196Y27075D02*
X42186Y28065D01*
D12*
X37929Y4410D02*
X56285Y4410D01*
X26575Y14725D02*
X33425Y14725D01*
X57300Y32300D02*
X57300Y31275D01*
X34875Y13410D02*
X35664Y13410D01*
D11*
X40825Y28475D02*
X40825Y33947D01*
D12*
X57275Y22450D02*
X57275Y23350D01*
D13*
X24475Y39646D02*
X24475Y41446D01*
D11*
X40898Y21725D02*
X42186Y23012D01*
D12*
X26575Y13349D02*
X33514Y13349D01*
D11*
X24875Y14725D02*
X23981Y15619D01*
D12*
X26494Y48425D02*
X12875Y48425D01*
D11*
X37810Y46575D02*
X37810Y32848D01*
D12*
X3250Y51525D02*
X1675Y49950D01*
D13*
X21425Y40546D02*
X24475Y40546D01*
D11*
X27200Y36272D02*
X26470Y35542D01*
X27200Y38812D02*
X26200Y39812D01*
D12*
X28956Y50800D02*
X28956Y49187D01*
X28194Y48425*
X1675Y5575D02*
X3900Y3350D01*
D11*
X33800Y28475D02*
X32352Y28475D01*
X27200Y37542D02*
X26175Y37542D01*
D12*
X30299Y46725D02*
X30299Y40888D01*
X31105Y37481D02*
X33575Y37481D01*
X33575Y17220D02*
X29393Y17220D01*
X55880Y50800D02*
X54280Y49200D01*
X12875Y48425D02*
X9775Y51525D01*
D11*
X26470Y35542D02*
X26175Y35542D01*
D12*
X32258Y46725D02*
X33129Y46725D01*
D11*
X37075Y3565D02*
X38100Y2540D01*
D12*
X33468Y49200D02*
X54280Y49200D01*
X26575Y12025D02*
X26575Y13349D01*
X31496Y50800D02*
X30299Y49603D01*
D11*
X23981Y15619D02*
X23850Y15619D01*
D12*
X56285Y4410D02*
X58420Y2540D01*
X29775Y38812D02*
X31105Y37481D01*
X36576Y47213D02*
X36576Y42042D01*
X28900Y38812D02*
X28900Y40082D01*
D11*
X24875Y12025D02*
X24173Y12025D01*
D12*
X28900Y38812D02*
X29775Y38812D01*
D11*
X37875Y11975D02*
X37075Y11175D01*
D12*
X31538Y30091D02*
X33138Y30091D01*
X33635Y36222D02*
X28900Y36222D01*
X56500Y31275D02*
X58100Y31275D01*
D11*
X42186Y23012D02*
X42186Y24445D01*
X27200Y38812D02*
X26175Y38812D01*
X37810Y32848D02*
X39496Y31163D01*
X39496Y23012D02*
X39496Y31163D01*
X37929Y6010D02*
X37929Y6950D01*
D12*
X36746Y35354D02*
X35889Y36211D01*
D11*
X27200Y40082D02*
X26470Y40812D01*
D12*
X9775Y51525D02*
X3250Y51525D01*
D11*
X24875Y16052D02*
X24308Y16619D01*
X26445Y36272D02*
X26175Y36542D01*
X38675Y21725D02*
X40898Y21725D01*
D12*
X34600Y36211D02*
X35828Y36211D01*
X36746Y33997D02*
X35350Y32601D01*
D11*
X37929Y6010D02*
X39878Y6010D01*
D12*
X33468Y49200D02*
X32693Y48425D01*
X34468Y48068D02*
X35721Y48068D01*
D14*
X58650Y7350D03*
X26175Y38812D03*
X9461Y45573D03*
X7475Y8025D03*
X62687Y28999D03*
X60887Y31199D03*
X60400Y44175D03*
X63400Y45175D03*
X58650Y13350D03*
X64487Y28999D03*
X3875Y12425D03*
X7661Y47773D03*
X9461Y43373D03*
X62650Y11350D03*
X66287Y24599D03*
X63587Y27899D03*
X60650Y13350D03*
X61400Y45175D03*
X4775Y11325D03*
D13*
X32556Y22125D03*
D14*
X59650Y10350D03*
X61787Y25699D03*
X7475Y12425D03*
X4775Y9125D03*
X5861Y43373D03*
D13*
X30990Y18490D03*
D15*
X66070Y7625D03*
D14*
X5675Y12425D03*
D13*
X36360Y12714D03*
D14*
X23850Y16619D03*
X64487Y24599D03*
D13*
X56225Y23350D03*
X32050Y44951D03*
X28525Y16352D03*
X33756Y20925D03*
D14*
X65387Y25699D03*
X62687Y26799D03*
X6575Y11325D03*
X59400Y47175D03*
X4961Y46673D03*
X62400Y44175D03*
X60650Y7350D03*
X64487Y31199D03*
X62650Y13350D03*
X59650Y12350D03*
X7661Y41173D03*
X60400Y42175D03*
X6761Y40073D03*
D13*
X32050Y43751D03*
X33388Y30091D03*
D14*
X60650Y11350D03*
X60887Y26799D03*
X37929Y6950D03*
D15*
X13975Y2550D03*
D13*
X33756Y22125D03*
D14*
X63587Y23499D03*
X8561Y44473D03*
X60650Y15350D03*
X60887Y24599D03*
D13*
X35350Y21926D03*
X58325Y23350D03*
D14*
X3875Y10225D03*
X66287Y28999D03*
X59650Y8350D03*
X33800Y28475D03*
X23850Y11349D03*
X8375Y13525D03*
D13*
X31356Y22125D03*
D14*
X61650Y10350D03*
X6575Y13525D03*
X59400Y43175D03*
X8561Y46673D03*
X60400Y46175D03*
X65387Y23499D03*
X66287Y26799D03*
X9461Y47773D03*
X62400Y46175D03*
X64487Y26799D03*
D15*
X15275Y50800D03*
D13*
X56250Y31275D03*
D14*
X6575Y6925D03*
D13*
X34450Y43751D03*
D14*
X26175Y37542D03*
X6761Y44473D03*
X6761Y42273D03*
X61400Y43175D03*
D13*
X34450Y44951D03*
D14*
X4061Y47773D03*
X59400Y39175D03*
X4961Y44473D03*
D15*
X66070Y35550D03*
D14*
X61400Y39175D03*
X3875Y8025D03*
X61787Y30099D03*
D13*
X3900Y3350D03*
D14*
X65387Y30099D03*
X66287Y31199D03*
X5675Y8025D03*
X5861Y47773D03*
D13*
X33250Y44951D03*
D14*
X62650Y9350D03*
X59650Y14350D03*
X60400Y40175D03*
D13*
X31408Y47575D03*
X58350Y31275D03*
D14*
X7661Y43373D03*
D13*
X31288Y30091D03*
D14*
X4061Y45573D03*
X4775Y13525D03*
X4961Y42273D03*
X4061Y43373D03*
D13*
X31356Y20925D03*
D14*
X8375Y11325D03*
X8561Y42273D03*
X61650Y12350D03*
X6575Y9125D03*
X5675Y10225D03*
X7661Y45573D03*
D13*
X24475Y39646D03*
D14*
X63400Y41175D03*
X23850Y14619D03*
X9275Y14625D03*
X65387Y27899D03*
X9275Y8025D03*
X9275Y10225D03*
X26175Y40812D03*
X63587Y25699D03*
X9461Y41173D03*
X38865Y6010D03*
X59400Y41175D03*
X59400Y45175D03*
X63400Y43175D03*
X6761Y46673D03*
X23850Y12349D03*
X58650Y15350D03*
X62687Y31199D03*
X8375Y9125D03*
X8561Y40073D03*
X63400Y39175D03*
X26175Y35542D03*
X62400Y42175D03*
X62650Y7350D03*
X8375Y6925D03*
X3875Y14625D03*
X4961Y40073D03*
X4061Y41173D03*
X61650Y14350D03*
X63400Y47175D03*
D13*
X33250Y43751D03*
X32556Y20925D03*
D14*
X58650Y11350D03*
X62650Y15350D03*
X62400Y40175D03*
X9275Y12425D03*
X5861Y45573D03*
X23850Y13349D03*
X23850Y15619D03*
X7475Y10225D03*
X58650Y9350D03*
X5861Y41173D03*
X61400Y47175D03*
X63587Y30099D03*
X61650Y8350D03*
X61400Y41175D03*
X61787Y27899D03*
X39878Y6950D03*
X4775Y6925D03*
D13*
X24475Y41446D03*
D14*
X62687Y24599D03*
X7475Y14625D03*
X60650Y9350D03*
X60887Y28999D03*
X40825Y28475D03*
X5675Y14625D03*
X61787Y23499D03*
X26175Y39812D03*
X26175Y36542D03*
%LNtop copper component ea07fd4ff4997684*%
D16*
X32352Y28475D03*
X32352Y26775D03*
%LNtop copper component c87bc061f1744b52*%
D17*
X42186Y31163D03*
X39496Y31163D03*
D18*
X36806Y31163D03*
%LNtop copper component 11c37bdc9c142eb1*%
D19*
X37929Y8335D03*
X36229Y8335D03*
%LNtop copper component 3eb2963af9ff2030*%
D20*
X18825Y25725D03*
D21*
X26325Y25725D03*
%LNtop copper component 8bb0fe85e55078e9*%
D22*
X39700Y20325D03*
X41700Y20325D03*
X43700Y20325D03*
X45700Y20325D03*
X40700Y19075D03*
X42700Y19075D03*
X44700Y19075D03*
X44700Y16575D03*
X45700Y17825D03*
X43700Y17825D03*
X42700Y16575D03*
X40700Y16575D03*
X39700Y17825D03*
X41700Y17825D03*
X44700Y14075D03*
X45700Y15325D03*
X43700Y15325D03*
X42700Y14075D03*
X40700Y14075D03*
X39700Y15325D03*
X41700Y15325D03*
X44700Y11575D03*
X45700Y12825D03*
X43700Y12825D03*
X42700Y11575D03*
X40700Y11575D03*
X39700Y12825D03*
X41700Y12825D03*
D23*
X33575Y19760D03*
X33575Y18490D03*
X33575Y17220D03*
X33575Y15950D03*
X33575Y14680D03*
X33575Y13410D03*
X33575Y12140D03*
D24*
X43125Y15950D03*
%LNtop copper component db61931e5f035644*%
D19*
X26575Y14725D03*
X24875Y14725D03*
%LNtop copper component 7137e71a4cea728d*%
D25*
X21425Y40546D03*
X21425Y36126D03*
%LNtop copper component 4d3a6ebc9d54f9cd*%
D16*
X32693Y48425D03*
X32693Y46725D03*
%LNtop copper component cd382a3683b8f075*%
D19*
X26575Y16052D03*
X24875Y16052D03*
%LNtop copper component d2d1590e89a861b1*%
D26*
X24875Y13349D03*
X26575Y13349D03*
%LNtop copper component d734a5d7e1a48692*%
D27*
X53340Y2540D03*
X36576Y50800D03*
X60960Y2540D03*
X58420Y2540D03*
X45720Y50800D03*
X30480Y2540D03*
X43180Y2540D03*
X31496Y50800D03*
X58420Y50800D03*
X39116Y50800D03*
X41656Y50800D03*
X38100Y2540D03*
X63500Y50800D03*
X48260Y50800D03*
X26416Y50800D03*
X18796Y50800D03*
X53340Y50800D03*
X55880Y50800D03*
X34036Y50800D03*
X45720Y2540D03*
X40640Y2540D03*
X23876Y50800D03*
X27900Y2600D03*
X35560Y2540D03*
X55880Y2540D03*
X63500Y2540D03*
X50800Y50800D03*
X50800Y2540D03*
X33020Y2540D03*
X60960Y50800D03*
X28956Y50800D03*
X21336Y50800D03*
%LNtop copper component 43c215aac44ae54e*%
D17*
X42186Y23012D03*
X39496Y23012D03*
D18*
X36806Y23012D03*
%LNtop copper component 0cfafaa410137a58*%
D16*
X57300Y34000D03*
X57300Y32300D03*
%LNtop copper component 3ce2933df4b04c48*%
D22*
X39700Y43126D03*
X41700Y43126D03*
X43700Y43126D03*
X45700Y43126D03*
X40700Y41876D03*
X42700Y41876D03*
X44700Y41876D03*
X44700Y39376D03*
X45700Y40626D03*
X43700Y40626D03*
X42700Y39376D03*
X40700Y39376D03*
X39700Y40626D03*
X41700Y40626D03*
X44700Y36876D03*
X45700Y38126D03*
X43700Y38126D03*
X42700Y36876D03*
X40700Y36876D03*
X39700Y38126D03*
X41700Y38126D03*
X44700Y34376D03*
X45700Y35626D03*
X43700Y35626D03*
X42700Y34376D03*
X40700Y34376D03*
X39700Y35626D03*
X41700Y35626D03*
D23*
X33575Y42561D03*
X33575Y41291D03*
X33575Y40021D03*
X33575Y38751D03*
X33575Y37481D03*
X33575Y36211D03*
X33575Y34941D03*
D24*
X43125Y38751D03*
%LNtop copper component 6df1a0f1c6ef3c6a*%
D28*
X39878Y4310D03*
X39878Y6010D03*
%LNtop copper component 49e4e2322de7130e*%
D19*
X28900Y40082D03*
X27200Y40082D03*
%LNtop copper component 85390a75f14b6068*%
D16*
X32352Y32725D03*
X32352Y31025D03*
%LNtop copper component fab8c58c7bc5192a*%
D29*
X48460Y16350D03*
X55960Y16350D03*
D14*
X47210Y17400D03*
X48448Y17400D03*
X49685Y17400D03*
X47210Y15306D03*
X49685Y15306D03*
X48448Y15306D03*
X49067Y16350D03*
X47829Y16350D03*
X54723Y17400D03*
X55960Y17400D03*
X57198Y17400D03*
X56579Y16350D03*
X55342Y16350D03*
X57198Y15306D03*
X54723Y15306D03*
X55960Y15306D03*
%LNtop copper component 8e6e433721e33b4f*%
D26*
X39496Y27075D03*
X41196Y27075D03*
%LNtop copper component 64e381ecda86371f*%
D19*
X26575Y12025D03*
X24875Y12025D03*
%LNtop copper component fca6e894d8537711*%
D16*
X30299Y48425D03*
X30299Y46725D03*
%LNtop copper component 23d9f258c1d46145*%
D26*
X36229Y4410D03*
X37929Y4410D03*
%LNtop copper component 705094b2a077bcc6*%
X36229Y5910D03*
X37929Y5910D03*
%LNtop copper component a7aed7fea1efd697*%
D19*
X28194Y48425D03*
X26494Y48425D03*
%LNtop copper component 346f0da3333319ea*%
D29*
X49175Y40175D03*
X56675Y40175D03*
D14*
X47925Y41225D03*
X49163Y41225D03*
X50400Y41225D03*
X47925Y39131D03*
X50400Y39131D03*
X49163Y39131D03*
X49781Y40175D03*
X48544Y40175D03*
X55438Y41225D03*
X56675Y41225D03*
X57913Y41225D03*
X57294Y40175D03*
X56056Y40175D03*
X57913Y39131D03*
X55438Y39131D03*
X56675Y39131D03*
%LNtop copper component da3eb70409a45156*%
D19*
X28900Y38812D03*
X27200Y38812D03*
%LNtop copper component 7a765de22fa4a192*%
X28900Y36272D03*
X27200Y36272D03*
%LNtop copper component 30ac9311f028b718*%
D26*
X27200Y37542D03*
X28900Y37542D03*
%LNtop copper component 14ae6f913210defb*%
D28*
X57275Y20650D03*
X57275Y22350D03*
M02*