%FSLAX33Y33*%
%MOMM*%
%AMRect-W10000000-H8600001-RO1.500*
21,1,10.,8.600001,0.,0.,90*%
%ADD10C,0.8*%
%ADD11C,0.7*%
%ADD12Rect-W10000000-H8600001-RO1.500*%
%ADD13R,3.5X3.1*%
D10*
%LNbottom paste_traces*%
G01*
X58650Y7350D03*
X9461Y45573D03*
X7475Y8025D03*
X62687Y28999D03*
X60887Y31199D03*
X60400Y44175D03*
X63400Y45175D03*
X58650Y13350D03*
X64487Y28999D03*
X3875Y12425D03*
X7661Y47773D03*
X9461Y43373D03*
X62650Y11350D03*
X66287Y24599D03*
X63587Y27899D03*
X60650Y13350D03*
X61400Y45175D03*
X4775Y11325D03*
X59650Y10350D03*
X61787Y25699D03*
X7475Y12425D03*
X4775Y9125D03*
X5861Y43373D03*
X5675Y12425D03*
X64487Y24599D03*
X65387Y25699D03*
X62687Y26799D03*
X6575Y11325D03*
X59400Y47175D03*
X4961Y46673D03*
X62400Y44175D03*
X60650Y7350D03*
X64487Y31199D03*
X62650Y13350D03*
X59650Y12350D03*
X7661Y41173D03*
X60400Y42175D03*
X6761Y40073D03*
X60650Y11350D03*
X60887Y26799D03*
X63587Y23499D03*
X8561Y44473D03*
X60650Y15350D03*
X60887Y24599D03*
X3875Y10225D03*
X66287Y28999D03*
X59650Y8350D03*
X8375Y13525D03*
X61650Y10350D03*
X6575Y13525D03*
X59400Y43175D03*
X8561Y46673D03*
X60400Y46175D03*
X65387Y23499D03*
X66287Y26799D03*
X9461Y47773D03*
X62400Y46175D03*
X64487Y26799D03*
X6575Y6925D03*
X6761Y44473D03*
X6761Y42273D03*
X61400Y43175D03*
X4061Y47773D03*
X59400Y39175D03*
X4961Y44473D03*
X61400Y39175D03*
X3875Y8025D03*
X61787Y30099D03*
X65387Y30099D03*
X66287Y31199D03*
X5675Y8025D03*
X5861Y47773D03*
X62650Y9350D03*
X59650Y14350D03*
X60400Y40175D03*
X7661Y43373D03*
X4061Y45573D03*
X4775Y13525D03*
X4961Y42273D03*
X4061Y43373D03*
X8375Y11325D03*
X8561Y42273D03*
X61650Y12350D03*
X6575Y9125D03*
X5675Y10225D03*
X7661Y45573D03*
X63400Y41175D03*
X9275Y14625D03*
X65387Y27899D03*
X9275Y8025D03*
X9275Y10225D03*
X63587Y25699D03*
X9461Y41173D03*
X59400Y41175D03*
X59400Y45175D03*
X63400Y43175D03*
X6761Y46673D03*
X58650Y15350D03*
X62687Y31199D03*
X8375Y9125D03*
X8561Y40073D03*
X63400Y39175D03*
X62400Y42175D03*
X62650Y7350D03*
X8375Y6925D03*
X3875Y14625D03*
X4961Y40073D03*
X4061Y41173D03*
X61650Y14350D03*
X63400Y47175D03*
X58650Y11350D03*
X62650Y15350D03*
X62400Y40175D03*
X9275Y12425D03*
X5861Y45573D03*
X7475Y10225D03*
X58650Y9350D03*
X5861Y41173D03*
X61400Y47175D03*
X63587Y30099D03*
X61650Y8350D03*
X61400Y41175D03*
X61787Y27899D03*
X4775Y6925D03*
X62687Y24599D03*
X7475Y14625D03*
X60650Y9350D03*
X60887Y28999D03*
X5675Y14625D03*
X61787Y23499D03*
%LNbottom paste component 8bb0fe85e55078e9*%
D11*
X39700Y20325D03*
X41700Y20325D03*
X43700Y20325D03*
X45700Y20325D03*
X40700Y19075D03*
X42700Y19075D03*
X44700Y19075D03*
X44700Y16575D03*
X45700Y17825D03*
X43700Y17825D03*
X42700Y16575D03*
X40700Y16575D03*
X39700Y17825D03*
X41700Y17825D03*
X44700Y14075D03*
X45700Y15325D03*
X43700Y15325D03*
X42700Y14075D03*
X40700Y14075D03*
X39700Y15325D03*
X41700Y15325D03*
X44700Y11575D03*
X45700Y12825D03*
X43700Y12825D03*
X42700Y11575D03*
X40700Y11575D03*
X39700Y12825D03*
X41700Y12825D03*
D12*
X43125Y15950D03*
%LNbottom paste component 3ce2933df4b04c48*%
D11*
X39700Y43126D03*
X41700Y43126D03*
X43700Y43126D03*
X45700Y43126D03*
X40700Y41876D03*
X42700Y41876D03*
X44700Y41876D03*
X44700Y39376D03*
X45700Y40626D03*
X43700Y40626D03*
X42700Y39376D03*
X40700Y39376D03*
X39700Y40626D03*
X41700Y40626D03*
X44700Y36876D03*
X45700Y38126D03*
X43700Y38126D03*
X42700Y36876D03*
X40700Y36876D03*
X39700Y38126D03*
X41700Y38126D03*
X44700Y34376D03*
X45700Y35626D03*
X43700Y35626D03*
X42700Y34376D03*
X40700Y34376D03*
X39700Y35626D03*
X41700Y35626D03*
D12*
X43125Y38751D03*
%LNbottom paste component fab8c58c7bc5192a*%
D13*
X48460Y16350D03*
X55960Y16350D03*
D10*
X47210Y17400D03*
X48448Y17400D03*
X49685Y17400D03*
X47210Y15306D03*
X49685Y15306D03*
X48448Y15306D03*
X49067Y16350D03*
X47829Y16350D03*
X54723Y17400D03*
X55960Y17400D03*
X57198Y17400D03*
X56579Y16350D03*
X55342Y16350D03*
X57198Y15306D03*
X54723Y15306D03*
X55960Y15306D03*
%LNbottom paste component 346f0da3333319ea*%
D13*
X49175Y40175D03*
X56675Y40175D03*
D10*
X47925Y41225D03*
X49163Y41225D03*
X50400Y41225D03*
X47925Y39131D03*
X50400Y39131D03*
X49163Y39131D03*
X49781Y40175D03*
X48544Y40175D03*
X55438Y41225D03*
X56675Y41225D03*
X57913Y41225D03*
X57294Y40175D03*
X56056Y40175D03*
X57913Y39131D03*
X55438Y39131D03*
X56675Y39131D03*
M02*